<svg width="14" height="14" viewBox="0 0 14 14" fill="none" xmlns="http://www.w3.org/2000/svg">
<path d="M6.21992 12.4398C9.65509 12.4398 12.4398 9.65509 12.4398 6.21992C12.4398 2.78475 9.65509 0 6.21992 0C2.78475 0 0 2.78475 0 6.21992C0 9.65509 2.78475 12.4398 6.21992 12.4398Z" fill="#2D3139"/>
<path d="M13.7998 11.7012C13.572 11.2801 13.0887 11.0454 12.4398 11.0454C11.9497 11.0454 11.5286 11.2456 11.2801 11.5907C11.0316 11.9359 10.9763 12.3984 11.1282 12.8609C11.425 13.7584 11.9428 13.9586 12.2258 13.9931C12.2672 14 12.3087 14 12.357 14C12.6607 14 13.1302 13.8688 13.5858 13.1854C13.9517 12.6538 14.0207 12.1223 13.7998 11.7012Z" fill="#2D3139"/>
</svg>
