<svg width="24" height="24" viewBox="0 0 24 24" fill="none" xmlns="http://www.w3.org/2000/svg">
<path d="M19.0201 5.47381C17.0801 3.53381 15.1801 3.48381 13.1901 5.47381L11.9801 6.68381C11.8801 6.78381 11.8401 6.94381 11.8801 7.08381C12.6401 9.73381 14.7601 11.8538 17.4101 12.6138C17.4501 12.6238 17.4901 12.6338 17.5301 12.6338C17.6401 12.6338 17.7401 12.5938 17.8201 12.5138L19.0201 11.3038C20.0101 10.3238 20.4901 9.37381 20.4901 8.41381C20.5001 7.42381 20.0201 6.46381 19.0201 5.47381Z" fill="#292D32"/>
<path d="M15.6101 13.5237C15.3201 13.3837 15.0401 13.2437 14.7701 13.0837C14.5501 12.9537 14.3401 12.8137 14.1301 12.6637C13.9601 12.5537 13.7601 12.3937 13.5701 12.2337C13.5501 12.2237 13.4801 12.1637 13.4001 12.0837C13.0701 11.8037 12.7001 11.4437 12.3701 11.0437C12.3401 11.0237 12.2901 10.9537 12.2201 10.8637C12.1201 10.7437 11.9501 10.5437 11.8001 10.3137C11.6801 10.1637 11.5401 9.9437 11.4101 9.7237C11.2501 9.4537 11.1101 9.1837 10.9701 8.9037C10.9489 8.85831 10.9284 8.81314 10.9085 8.76824C10.7609 8.43492 10.3263 8.33747 10.0685 8.59523L4.34007 14.3237C4.21007 14.4537 4.09007 14.7037 4.06007 14.8737L3.52007 18.7037C3.42007 19.3837 3.61007 20.0237 4.03007 20.4537C4.39007 20.8037 4.89007 20.9937 5.43007 20.9937C5.55007 20.9937 5.67007 20.9837 5.79007 20.9637L9.63007 20.4237C9.81007 20.3937 10.0601 20.2737 10.1801 20.1437L15.9014 14.4224C16.1609 14.1628 16.063 13.7174 15.7254 13.5733C15.6874 13.5571 15.649 13.5406 15.6101 13.5237Z" fill="#292D32"/>
</svg>
