<svg width="260" height="150" viewBox="0 0 260 150" fill="none" xmlns="http://www.w3.org/2000/svg">
<g style="mix-blend-mode:hard-light">
<path fill-rule="evenodd" clip-rule="evenodd" d="M163.567 109.627C163.228 110.041 93.0653 109.829 84.9815 109.831C81.614 109.832 77.1566 109.485 73.9247 109.869L44.3681 109.828C43.7452 109.842 35.9141 110.13 35.3544 109.57C34.3285 110.159 30.6367 110.23 29.1439 110.101C28.9186 110.082 28.9513 110.099 28.7338 110.018C28.3534 109.876 28.6278 110.056 28.3784 109.766L27.8631 109.571L27.5357 109.772C27.4936 109.787 27.4578 109.799 27.411 109.812L1.67094 109.833C1.45735 109.829 0.969363 109.787 0.793969 109.805C-0.0939149 109.898 0.168007 109.9 0.0573137 110.197C0.553094 110.563 3.41163 114.741 4.07267 115.647C5.46023 117.549 6.75347 119.293 8.13557 121.2C9.08348 122.509 8.94239 123.128 10.7813 123.104C12.9772 123.075 21.9067 122.828 22.8071 123.386C22.8266 123.359 22.8702 123.339 22.8819 123.333L23.4853 123.038C23.4884 123.008 23.5017 122.992 23.5118 122.97L38.2644 122.788C43.2799 122.803 47.9064 122.939 52.8727 122.942C57.8734 122.945 62.5966 122.831 67.4858 122.779C68.7681 122.765 69.6186 123.151 70.9492 123.146L81.9515 123.134C82.8028 123.125 82.9025 123.037 83.3749 123.755L88.0498 130.254C89.2627 131.853 90.149 133.639 91.0447 133.747L107.689 133.741C108.903 133.741 110.124 133.376 110.801 134.359L121.79 149.643L186.95 149.639C189.436 149.646 188.519 149.866 191.768 145.465C192.677 144.234 193.476 143.125 194.371 141.881C195.035 140.958 195.255 141.245 196.496 141.251L222.675 141.253C225.509 141.256 224.421 141.534 227.589 137.244C229.39 134.805 231.104 132.473 232.874 129.992C233.766 128.743 234.589 127.672 235.472 126.404C236.606 124.779 236.908 125.271 239.886 125.271L247.702 125.278C249.01 125.3 248.883 125.226 249.547 124.281C251.274 121.822 252.992 119.532 254.759 117.122L259.959 109.857C257.432 109.656 254.458 109.8 251.891 109.828L229.618 109.84C228.862 109.842 228.214 109.981 227.751 109.575C227.002 110.776 227.02 109.514 226.725 109.073C226.616 110.061 226.97 110.07 226.149 109.961C225.317 109.85 225.988 110.195 225.567 109.027C225.359 110.027 225.771 110.012 224.998 110.006C224.066 109.998 224.929 110.072 224.41 109.005C224.383 109.076 224.366 109.158 224.341 109.225C223.95 110.244 224.192 110.011 223.857 110.002C223.236 109.985 223.82 110.114 223.365 109.423C223.322 109.359 223.272 109.358 223.24 109.219C223.207 109.073 223.162 109.064 223.109 109.005C222.883 110.094 223.274 109.976 222.642 110.003C221.698 110.045 222.34 110.156 222.064 109.11L221.952 109.819C219.589 109.95 216.981 109.792 214.575 109.795L192.735 109.821C189.151 109.825 164.748 110.219 163.567 109.627Z" fill="#6B4948"/>
<path fill-rule="evenodd" clip-rule="evenodd" d="M74.2443 86.3081C75.2024 85.4992 80.0121 85.9531 81.5103 85.9531C85.27 85.9531 101.697 86.18 104.022 85.916C104.82 86.0114 119.811 86.2692 121.048 86.0211C121.094 84.9102 121.276 70.7147 121.12 69.4131C120.98 68.2475 121.216 69.2109 120.803 68.6626C120.784 68.6361 120.746 68.6034 120.726 68.5778C120.706 68.5513 120.671 68.5151 120.651 68.4886C120.633 68.463 120.6 68.4197 120.583 68.395C120.57 68.3765 120.437 68.131 120.409 68.0798C119.463 66.651 118.151 65.5278 117.86 62.2359C117.471 57.8499 119.453 55.6804 119.555 55.3501C119.831 54.6605 119.331 54.9148 118.851 54.9307C118.393 54.9457 117.992 54.9457 117.525 54.9351C116.745 54.9174 115.729 54.8794 114.972 54.9934L119.537 80.1754L118.773 80.1869L114.124 55.0216L104.403 54.898C104.361 56.1801 106.088 65.5323 106.39 67.4184C106.719 69.4741 108.394 78.9993 108.418 80.164L107.667 80.1869C107.291 78.7767 106.865 75.5546 106.619 73.906C106.295 71.7434 103.757 55.6132 103.35 54.9589L93.6866 54.9042C93.6538 56.1545 96.9863 77.0133 97.267 80.164C96.1577 80.428 96.3884 79.5423 96.1748 78.0977C96.0119 76.9957 95.8474 75.7903 95.7032 74.7448C95.3961 72.5285 95.0274 70.2299 94.7358 68.184C94.4123 65.9058 94.0647 63.7945 93.763 61.518C93.6032 60.3092 93.0505 55.8234 92.7574 54.9713L82.9977 54.9077C82.9408 56.0689 84.2613 65.7636 84.5256 67.6215C84.7844 69.4441 86.1345 79.1706 86.0823 80.2152L85.3885 80.1807C84.8046 78.4147 82.6219 56.6702 82.0412 54.9845L72.2667 54.9042L74.9865 80.149C73.8406 80.39 74.0292 79.8885 73.9084 78.3652C73.6012 74.4958 71.6688 56.8627 71.3203 55.0093L61.6635 54.9474C61.5146 56.8009 64.2742 82.4201 64.4433 86.0387C66.3766 86.7946 72.9355 85.6467 74.2443 86.3081Z" fill="#FFE164"/>
<path fill-rule="evenodd" clip-rule="evenodd" d="M22.8071 123.386L30.1105 133.54C30.7568 134.117 45.2155 133.778 48.2447 133.768C50.4032 133.76 49.9137 133.558 51.0674 135.153L60.2518 147.783C61.0781 148.905 61.135 149.684 62.7042 149.659C82.3717 149.343 102.131 150.024 121.79 149.643L110.801 134.359C110.124 133.376 108.903 133.741 107.689 133.741L91.0447 133.747C90.149 133.639 89.2627 131.853 88.0498 130.254L83.3749 123.755C82.9025 123.037 82.8028 123.125 81.9515 123.134L70.9492 123.146C69.6186 123.151 68.7681 122.765 67.4858 122.779C62.5966 122.831 57.8734 122.945 52.8727 122.942C47.9064 122.939 43.2799 122.803 38.2644 122.788L23.5118 122.97C23.5017 122.992 23.4884 123.008 23.4853 123.038L22.8819 123.333C22.8702 123.339 22.8266 123.359 22.8071 123.386Z" fill="#4A3232"/>
<path fill-rule="evenodd" clip-rule="evenodd" d="M136.016 42.276C136.167 43.4151 136.077 43.7383 135.911 44.7114L138.527 44.715C141.798 44.7158 141.673 46.6196 142.531 50.3257C143.01 52.3955 143.915 57.0128 144.523 58.5051C145.745 58.574 145.44 58.5873 146.485 60.0416C147.017 60.7834 147.439 61.3538 147.928 62.032C148.699 63.1013 156.331 73.3338 156.688 74.2548C157.244 74.5894 156.84 74.3042 157.037 74.6645C157.359 74.7466 157.203 74.4967 157.341 74.9921L154.841 75.2658C153.973 75.2676 153.105 75.2641 152.238 75.2641C144.724 75.2641 145.648 75.1378 137.932 73.9925C132.884 73.2437 127.693 72.5602 123.031 69.8185C122.362 69.4246 121.932 69.0608 121.323 68.7677L121.343 83.9513C121.294 87.4269 122.31 85.5169 125.345 85.9151C125.996 86.0008 126.17 86.4052 126.537 86.8582L131.55 93.6946C131.668 93.8447 131.898 94.1458 131.991 94.2924C132.552 95.1657 132.527 95.699 134.008 95.6655L141.824 95.654C143.016 95.8465 143.138 97.5136 144.177 98.0708L144.559 97.4677C144.249 97.0739 144.178 97.2267 144.315 96.3657C144.362 96.0699 144.393 95.9948 144.514 95.7988C144.543 95.752 144.847 95.4827 144.852 95.4792C144.287 94.3286 145.145 93.8438 145.248 93.3528C145.452 92.3886 145.276 91.8773 146.117 92.0857C145.868 91.0393 146.404 90.0468 146.961 90.7982C146.961 90.7956 146.912 89.1602 147.699 89.4331L148.064 89.7739C148.036 89.0419 147.954 88.9156 148.473 88.6675C149.015 88.4088 148.862 88.4838 149.056 89.0975C149.077 89.0587 149.089 88.9342 149.098 88.9633L149.257 88.5836C149.382 88.4035 148.955 88.4123 149.644 88.2746C150.173 88.1686 150.241 88.6746 150.303 88.7955C150.319 88.8256 150.335 88.8962 150.357 88.9412C150.379 88.8944 150.389 88.7549 150.398 88.7858L150.555 88.347C150.732 88.0573 150.14 88.143 150.935 88.0255C151.447 87.9496 151.344 88.2693 151.68 88.7849C151.677 88.0979 151.531 87.7659 152.216 87.8534C152.942 87.9461 152.396 87.8728 152.769 88.6216L152.902 87.7668C153.557 87.7024 153.541 87.5726 153.943 88.2693C153.964 88.3064 153.988 88.3796 154.017 88.4282C154.026 87.8092 153.931 87.4684 154.536 87.5231C155.284 87.5911 154.599 87.3624 155.138 88.3019C155.193 87.5372 155.079 87.8701 155.316 87.4489C156.312 87.3324 155.862 87.3227 156.284 88.0891C156.368 87.3271 156.176 87.3509 156.726 87.2361C157.137 87.1514 157.097 87.245 157.408 87.773C157.426 87.8039 157.447 87.8728 157.473 87.9152C157.51 87.207 157.35 87.1902 157.885 87.0781C158.348 86.98 158.412 87.3333 158.546 87.5628C158.561 87.5876 158.578 87.6529 158.601 87.6926C158.787 86.9951 158.494 86.9447 159.171 86.9271C159.968 86.905 159.349 86.8679 159.759 87.5929C160.009 86.8644 159.573 86.9889 160.218 86.7822C160.875 86.573 160.675 86.9589 160.915 87.4127C161.268 86.4485 160.586 86.9324 161.362 86.6586C162.093 86.4017 161.846 86.7399 162.072 87.2485C162.424 86.3098 161.801 86.7381 162.526 86.4873C163.207 86.2524 163.045 86.6224 163.23 87.0895C163.564 86.2374 163.041 86.5456 163.691 86.3222C164.377 86.0864 164.197 86.3867 164.387 86.9147C164.705 86.1526 164.259 86.361 164.855 86.1606C165.504 85.9434 165.361 86.1915 165.544 86.7399C165.683 86.4264 165.664 85.9981 166.141 85.9743C167.081 85.9266 166.205 86.0732 166.845 86.6427C167.159 85.7924 166.63 86.0873 167.28 85.8003C168.212 85.8056 167.636 85.6379 168.003 86.4608L168.226 85.7659C169.049 85.803 168.815 85.6202 169.16 86.278C169.497 85.682 169.111 85.7297 170.114 85.8983L175.524 85.7579C177.232 85.7544 181.388 85.4365 182.756 85.7986L183.333 85.7685C183.67 85.7129 184.626 85.7323 185.07 85.7244L185.337 86.2427C185.723 85.4657 185.139 85.7544 185.884 85.7712L185.152 83.1495L183.044 83.1097L164.917 83.1186L164.836 82.6082L164.84 71.8415L169.977 71.7364L164.454 45.7234L155.762 45.7922C152.942 41.4398 148.756 36.2574 145.634 31.7672C143.702 28.9883 144.135 29.3565 142.109 29.3768C141.964 29.3786 141.338 29.3971 141.242 29.3795C140.854 29.3079 140.813 29.7636 140.82 29.081L136.016 42.276Z" fill="#B7E8E7"/>
<path fill-rule="evenodd" clip-rule="evenodd" d="M91.7331 101.345C96.8382 100.5 99.4543 106.075 93.0216 106.977C88.212 107.652 85.0026 102.459 91.7331 101.345ZM113.785 99.0731C117.139 97.7609 121.764 100.075 119.895 102.912C118.613 104.859 114.247 105.149 112.038 103.405C111.421 102.918 110.753 101.615 111.515 100.532C112.152 99.6276 112.89 99.4236 113.785 99.0731ZM133.362 98.5203C134.79 98.1547 137.427 98.5689 138.251 100.195C140.115 103.873 131.951 105.36 130.231 102.079C129.631 100.934 130.287 99.8563 130.881 99.3724C131.65 98.7446 132.411 98.764 133.362 98.5203ZM104.022 85.916C103.704 86.7805 99.187 92.7983 98.3388 93.9657C97.9054 94.5635 96.9622 96.1609 96.39 96.3578C95.9737 96.8037 93.9259 96.5927 93.3709 96.5927C87.9134 96.5918 89.1825 95.6893 86.3349 99.7265L83.2222 104.013C82.3133 104.897 79.0447 103.726 77.5238 104.648C76.933 106.075 74.8258 108.127 73.9247 109.869C77.1566 109.485 81.614 109.832 84.9815 109.831C93.0653 109.829 163.228 110.041 163.567 109.627C162.998 108.52 161.917 107.181 161.155 106.313C160.997 106.107 160.855 105.915 160.71 105.69L158.437 102.512C158.023 102.029 158.147 101.738 157.452 101.629L152.671 101.685C151.663 101.719 150.517 101.688 149.489 101.691C149.262 101.692 146.759 101.798 146.67 101.523C146.649 101.458 146.593 101.483 146.558 101.454L144.177 98.0708C143.138 97.5136 143.016 95.8465 141.824 95.654L134.008 95.6655C132.527 95.699 132.552 95.1657 131.991 94.2924C131.898 94.1458 131.668 93.8447 131.55 93.6946L126.537 86.8582C126.17 86.4052 125.996 86.0008 125.345 85.9151C122.31 85.5169 121.294 87.4269 121.343 83.9513L121.323 68.7677L120.409 68.0798C120.437 68.131 120.57 68.3765 120.583 68.395C120.6 68.4197 120.633 68.463 120.651 68.4886C120.671 68.5151 120.706 68.5513 120.726 68.5778C120.746 68.6034 120.784 68.6361 120.803 68.6626C121.216 69.2109 120.98 68.2475 121.12 69.4131C121.276 70.7147 121.094 84.9102 121.048 86.0211C119.811 86.2692 104.82 86.0114 104.022 85.916Z" fill="#D7A666"/>
<path fill-rule="evenodd" clip-rule="evenodd" d="M132.331 24.9061C132.492 26.0708 131.417 28.3481 131.038 29.3194C126.906 29.6567 116.284 29.375 111.451 29.375C110.347 29.375 107.38 28.9892 106.693 29.662C106.556 29.7963 106.29 30.281 106.149 30.5027C105.889 30.9097 105.754 31.0237 105.481 31.3839L103.019 34.7659C102.515 35.4785 102.34 36.132 101.621 36.2618L66.9028 36.2777C66.0796 36.2777 65.2572 36.26 64.4356 36.26C63.2655 36.2609 63.3645 36.4066 62.7299 37.2419C61.9637 38.2521 61.0914 39.4645 60.2339 40.7422C61.3923 40.7528 64.19 40.51 65.0545 40.9206L65.4801 43.0301C68.4143 44.0536 68.3605 41.7833 69.3606 41.5361L84.9185 41.5264C86.5453 41.589 88.2876 41.438 89.9074 41.5255C91.5873 41.6173 92.1127 44.1463 92.8852 44.6461C94.3632 45.6033 101.052 43.9158 102.802 45.364C103.274 45.7552 103.007 45.6307 103.334 46.1446C103.897 47.0249 105.559 46.6497 106.967 46.6497L114.788 46.6099C115.389 46.6523 115.674 46.8625 116.007 47.4329C116.305 47.9451 115.913 47.5556 116.326 47.9936C117.189 48.9076 120.121 47.7905 121.128 48.5376L121.18 49.7111C121.107 50.7336 121.025 52.724 121.275 53.4949C121.753 53.2158 122.32 52.4441 122.771 51.9734C123.295 51.4259 123.948 50.9403 124.262 50.1297C123.692 47.8938 122.271 48.3221 122.174 46.3433C122.031 43.4558 124.37 44.5489 125.193 43.7789C125.495 43.2924 125.7 42.4615 125.929 41.7939C126.485 40.1638 126.013 40.8588 125.964 39.3718C125.883 36.9382 127.108 36.7872 128.535 37.0812C128.857 36.5735 128.967 36.622 129.455 36.8181C129.794 36.9549 130.024 37.2419 130.231 37.43L133.061 26.137C133.18 25.9101 133.223 25.9366 133.343 25.6946C133.117 24.6888 133.725 25.5277 133.001 24.5988C132.471 24.7224 133.05 24.6394 132.331 24.9061Z" fill="#B7E8E7"/>
<path fill-rule="evenodd" clip-rule="evenodd" d="M166.99 25.2743C166.382 24.5273 166.492 24.1882 166.908 23.201L167.607 23.2478C167.966 24.1255 168.203 25.4271 166.99 25.2743ZM133.343 25.6946C133.223 25.9366 133.18 25.9101 133.061 26.137L130.231 37.43C130.465 38.1108 130.535 38.8331 130.548 39.7727C131.028 40.0976 131.779 41.0566 132.37 40.9427C133.016 40.8191 134.229 40.0817 134.85 40.8897C135.481 41.0292 135.695 41.4681 136.016 42.276L140.82 29.081C141.308 27.4342 142.161 25.3856 142.729 23.9197C143.081 23.0111 143.387 22.2455 143.724 21.2901C143.941 20.6746 144.397 19.1364 144.776 19.0163C144.807 17.8878 145.089 17.6706 145.327 16.7743C146.081 17.026 155.039 26.7216 155.795 27.5278L166.134 38.3439L164.883 31.2647C164.985 29.8254 165.035 29.3212 166.173 29.413C166.707 30.236 166.598 30.2652 166.666 31.6082C166.271 32.584 166.244 32.1981 165.62 32.6264C165.936 33.9659 165.765 32.546 165.968 33.5359L167.723 40.5656C171.036 44.7538 171.538 50.4334 172.556 56.6384C172.895 58.7074 173.761 64.4691 173.718 66.4974C173.694 67.1597 173.847 67.8061 174.072 68.2599C174.273 64.017 174.652 59.5118 175.232 55.298C175.412 53.992 175.776 52.399 175.832 51.1284C175.15 51.1911 174.428 51.4604 174.21 50.7045C174.107 50.3451 174.125 49.1142 174.304 48.4457C174.5 47.7146 175.965 48.1535 176.497 48.1022C177.314 48.0219 178.012 48.0307 178.819 47.9795C178.785 46.9084 178.171 43.8178 177.901 42.8659C177.666 42.0403 177.533 41.5484 177.265 40.5453C177.004 39.5678 176.618 39.1104 176.536 38.1356C176.183 37.7152 176.107 37.5528 176.163 36.8419C175.61 36.6432 176.05 36.9081 175.732 36.5205C175.7 36.4808 175.486 36.0631 175.428 35.9377C175.22 35.4909 175.049 35.1085 174.847 34.7227C173.839 32.795 172.064 30.2316 170.621 29.0333C170.48 26.9935 170.292 27.4607 169.008 25.0756C168.671 24.4513 168.281 23.8509 167.983 23.3078C167.465 22.3691 167.662 22.1978 166.538 22.0627C166.393 22.7082 165.431 23.6981 164.965 24.0036C164.395 23.5568 163.69 22.9979 163.24 22.4407L162.925 23.0482C162.298 23.0217 161.551 22.1766 161.019 21.7537C158.869 20.0468 149.308 13.4082 148.007 11.9883C146.118 12.3919 145.638 6.59127 142.713 11.3737C142.325 12.0086 138.98 17.7112 137.85 14.6268L134.821 23.1648C134.036 25.3661 134.226 25.5542 133.343 25.6946Z" fill="#FFE164"/>
<path fill-rule="evenodd" clip-rule="evenodd" d="M216.477 103.009L218.183 103.086L218.128 105.972L216.487 105.92L216.477 103.009ZM209.708 103.014L211.381 103.061L211.358 105.987L209.702 105.953L209.708 103.014ZM206.305 102.978L207.981 103.143L207.975 105.955L206.313 105.965L206.305 102.978ZM202.888 103.003L204.596 103.061L204.543 105.975L202.927 105.924L202.888 103.003ZM199.484 102.979L201.213 103.121L201.176 105.945L199.522 105.976L199.484 102.979ZM196.107 103.032L197.838 103.023L197.765 105.968L196.142 105.88L196.107 103.032ZM192.729 102.988L194.4 103.106L194.375 105.964L192.74 105.943L192.729 102.988ZM189.339 103.131C189.83 102.908 190.494 102.937 191.008 103.131L191.047 105.952L189.335 105.913L189.339 103.131ZM185.963 103.019L187.63 103.096L187.609 105.973L185.962 105.918L185.963 103.019ZM182.529 103.139C183.039 102.898 183.687 102.964 184.227 103.107L184.223 105.851C183.767 106.077 183.066 106.052 182.561 105.875L182.529 103.139ZM183.78 97.6867L220.855 97.6408L220.8 102.196L183.735 102.175L183.78 97.6867ZM226.343 94.6924C229.516 93.0853 230.663 101.719 227.647 103.114C225.885 103.928 224.671 101.787 224.498 99.8634C224.274 97.3635 224.724 95.5127 226.343 94.6924ZM208.365 89.7104L208.357 95.4942C207.794 95.7688 204.93 95.7264 204.276 95.5127L204.24 89.8199L208.365 89.7104ZM192.85 89.8552L196.909 89.8022L196.86 95.6328L192.761 95.5657L192.85 89.8552ZM177.4 90.6843L177.471 91.2362L178.47 91.1364L178.706 91.9056C179.064 91.3263 178.686 91.7201 179.139 91.4702C179.388 91.9206 179.213 91.9532 179.669 92.0663C179.676 92.068 179.763 91.7449 180.327 92.2729C181.059 92.9581 179.881 91.6204 180.467 92.4442C180.855 92.989 180.87 93.5091 180.917 94.1122C181.493 93.6566 181.635 94.8072 181.826 95.5118C181.836 95.5533 181.99 96.0902 181.995 96.1008C182.316 96.7454 182.738 96.3057 183.478 96.2757L183.472 102.493L182.298 102.259L181.999 102.201C181.473 103.111 182.05 102.983 181.119 103.222C181.234 103.531 181.642 104.183 180.912 104.314C180.879 104.32 180.635 104.263 180.588 104.25C180.78 105.705 180.481 105.053 180.321 105.225C180.295 105.254 180.252 105.276 180.225 105.304L179.669 105.948C179.634 105.984 179.527 106.084 179.489 106.115C178.692 106.756 178.812 106.293 178.654 105.973L178.417 106.663C177.689 106.634 177.451 106.573 177.116 107.135C181.752 107.597 187.664 107.352 192.446 107.235C202.341 106.991 213.398 107.105 223.398 107.105C225.81 107.105 228.22 107.404 229.756 105.42C231.026 103.782 231.754 100.58 231.44 97.1622C230.772 89.8711 226.214 90.7108 221.226 89.8932C210.794 88.1827 202.195 88.3337 191.726 89.0216C186.981 89.3333 182.131 90.2896 177.4 90.6843Z" fill="#060707"/>
<path fill-rule="evenodd" clip-rule="evenodd" d="M162.143 97.7247L165.772 97.7777C165.788 98.0867 165.757 98.6227 165.801 98.8541C165.901 99.3786 165.781 99.1914 166.11 99.4572C165.84 100.104 165.725 99.5437 165.831 100.64C165.96 101.966 165.904 100.698 166.254 101.645C165.727 102.285 166.166 102.066 165.542 102.15L162.14 102.076L162.143 97.7247ZM184.06 74.1665C183.785 73.4 183.99 70.6891 184.08 69.6127C184.212 68.0312 185.503 68.3491 186.661 68.3385C189.042 68.3173 191.393 68.4392 193.769 68.4215C193.512 68.9823 193.785 68.6803 193.182 69.0352L188.903 71.5006C188.452 71.7903 184.537 74.5639 184.06 74.1665ZM191.998 66.478L186.444 66.4621L184.401 66.3367C184.069 64.9424 184.789 59.3167 185.013 57.5939C185.292 55.4481 185.765 51.5054 186.504 50.0785L191.146 50.0635L195.016 50.1491C195.313 51.4074 195.162 54.2666 195.209 55.8587C195.2 57.5974 195.463 65.346 195.036 66.2184C194.685 66.5875 194.917 66.433 194.338 66.4824L191.998 66.478ZM196.308 63.798L196.328 50.059L200.418 50.0908L200.433 50.8794L200.321 65.0475C199.751 65.7575 197.201 67.1579 196.486 66.8471C196.221 65.9111 196.327 64.9009 196.308 63.798ZM183.044 83.1097L185.152 83.1495L194.204 83.1009C194.432 84.0131 194.895 84.9253 194.972 85.8074C193.408 85.7447 192.663 85.9452 191.973 85.9566C191.701 85.9619 191.793 85.7968 191.189 85.8357C189.414 85.9487 190.23 85.4392 189.549 86.4962C189.469 85.9425 189.476 85.7076 188.992 85.758C188.415 85.8171 188.743 85.8524 188.625 86.0202L188.396 86.5933C188.372 86.55 188.352 86.4811 188.335 86.452L188.112 86.105C187.549 85.5955 187.33 86.233 187.324 86.241L187.126 86.6375C187.115 86.603 187.09 86.7425 187.064 86.7867C186.908 85.2935 186.804 86.875 185.884 85.7712C185.139 85.7544 185.723 85.4657 185.337 86.2427L185.07 85.7244C184.626 85.7323 183.67 85.7129 183.333 85.7685C183.035 87.1982 183.314 86.1889 182.814 86.845C182.791 86.875 182.756 86.9138 182.735 86.9421C182.706 86.9818 182.627 87.1028 182.606 87.1355C182.456 87.3686 182.621 87.207 182.466 87.4021C182.259 86.7858 182.642 86.5015 181.787 86.8529C181.023 87.1655 181.816 86.8458 181.309 87.622C181.087 86.8282 181.345 86.9147 180.744 86.9341C180.211 86.9518 180.579 86.7884 180.248 87.4225C180.235 87.4463 180.206 87.5814 180.198 87.5505C180.189 87.5205 180.174 87.6441 180.152 87.6821C179.959 87.109 180.203 86.8503 179.464 87.1134C178.949 87.2971 179.424 86.9686 178.995 87.8852C178.976 87.8419 178.962 87.7757 178.949 87.7492L178.828 87.4993C178.615 87.2291 178.658 87.1602 178.3 87.2856C177.554 87.5478 178.255 87.1487 177.837 88.0618C177.619 87.4922 177.883 87.1991 177.223 87.4128C176.371 87.6891 177.078 87.3651 176.681 88.2675C176.472 87.7244 176.682 87.3598 176.016 87.5752C175.263 87.8172 175.863 87.5249 175.524 88.4556C175.292 87.8843 175.628 87.4887 174.822 87.7448C174.132 87.9646 174.689 87.7509 174.366 88.6216C173.927 87.8172 174.608 87.932 173.777 87.8719C173.262 87.8339 173.283 88.1633 173.247 88.7417C173.068 88.4362 173.001 87.9055 172.496 88.0688C171.805 88.2931 172.352 87.9196 172.053 88.8556C171.229 88.3761 172.489 88.4627 171.447 88.3055C170.444 88.1545 171.235 88.7496 170.515 88.6958C169.993 88.6578 170.151 88.7903 169.646 88.9704L158.893 90.2755C155.993 90.7417 154.658 90.2729 152.939 92.8831C151.943 94.3939 150.87 99.2832 151.948 101.516L153.013 101.562L153.041 97.7282L160.742 97.7335L160.727 102.103C159.574 102.32 158.844 102.015 158.437 102.512L160.71 105.69C161.127 105.195 160.979 104.256 160.972 103.034L162.588 103.116L162.587 105.954C162.472 105.949 161.845 105.916 161.78 105.929C161.049 106.081 161.421 105.671 161.155 106.313C161.917 107.181 162.998 108.52 163.567 109.627C164.748 110.219 189.151 109.825 192.735 109.821L214.575 109.795C216.981 109.792 219.589 109.95 221.952 109.819L222.064 109.11C221.529 108.695 188.889 108.934 183.623 108.943C179.015 108.951 175.223 110.042 173.119 105.543C170.682 100.334 171.272 89.7625 177.578 88.9421C179.56 88.6843 181.538 88.422 183.493 88.1147C187.396 87.5019 191.369 86.8759 195.337 86.8114C196.711 86.7893 207.626 86.5889 207.98 86.3708C208.041 85.161 207.596 86.1103 208.182 84.7142C208.425 84.1367 208.611 83.5663 208.934 83.1442L226.146 83.1168L226.248 82.6762L183.785 82.5146L183.834 76.0394C184.548 75.34 186.991 74.0367 188.011 73.4512L196.539 68.6776C197.341 68.2423 200.381 66.9266 200.733 66.3764L200.69 48.4705L185.648 48.5349C183.947 52.3266 182.296 78.518 183.044 83.1097Z" fill="#0D0E13"/>
<path fill-rule="evenodd" clip-rule="evenodd" d="M52.9601 83.4303C52.7995 82.5225 52.7628 56.3965 52.9265 55.1691L60.2183 55.1788C60.5425 55.2636 60.3516 55.1788 60.5714 55.3404L60.5394 83.4312L52.9601 83.4303ZM36.3834 42.9366L42.2415 45.0549L42.6874 50.0299C45.2131 49.6255 49.0515 49.9319 51.7159 49.9319L60.2533 50.0025C60.6353 50.1526 60.417 50.0246 60.6384 50.2851L60.5714 54.4123C57.6505 54.8574 48.2782 54.2525 44.0344 54.445C42.6453 54.5077 43.3344 54.5483 43.2074 54.7267C43.3703 54.5686 43.3734 54.898 43.244 54.3117C42.7007 55.4119 42.8519 56.7603 42.9821 58.0107C43.0016 57.5215 43.251 57.2053 43.4124 56.7656C42.9088 57.0791 43.3251 56.8645 43.1894 56.6941L43.4366 55.1656L52.5134 55.1505L52.5539 83.2978C50.3167 84.1243 49.8349 82.1375 47.1151 85.7729C46.2382 86.9456 44.6207 90.1607 44.3689 92.1228L40.5811 92.1528L40.5351 74.3961C40.5398 73.5978 40.6723 72.6097 40.6458 71.8079L40.4322 72.3916C40.3746 72.6715 40.3699 72.8896 40.3434 73.2013L40.405 92.3612L44.1249 92.4937L43.9175 94.4584C41.9289 94.7895 39.7899 94.3259 37.8263 94.4354L20.7811 94.4407L20.7655 95.4509L44.195 95.3706C45.1016 91.9215 44.6355 91.0967 47.0434 87.0648C48.8527 84.0352 49.605 84.3345 51.585 84.3124C52.8564 84.2983 52.5477 84.4687 52.5477 86.2392L52.8743 86.2251L52.8844 84.3725L60.5558 84.3283C60.647 85.2626 60.5371 86.5359 60.7047 87.0957L61.1334 87.8242C61.2418 87.0648 60.9479 87.5107 61.4063 87.3412L70.5182 87.3977C71.3203 87.3977 72.817 87.1002 73.3837 87.5673L74.2443 86.3081C72.9355 85.6467 66.3766 86.7946 64.4433 86.0387C64.2742 82.4201 61.5146 56.8009 61.6635 54.9474L71.3203 55.0093C71.6688 56.8627 73.6012 74.4958 73.9084 78.3652C74.0292 79.8885 73.8406 80.39 74.9865 80.149L72.2667 54.9042L82.0412 54.9845C82.6219 56.6702 84.8046 78.4147 85.3885 80.1807L86.0823 80.2152C86.1345 79.1706 84.7844 69.4441 84.5256 67.6215C84.2613 65.7636 82.9408 56.0689 82.9977 54.9077L92.7574 54.9713C93.0505 55.8234 93.6032 60.3092 93.763 61.518C94.0647 63.7945 94.4123 65.9058 94.7358 68.184C95.0274 70.2299 95.3961 72.5285 95.7032 74.7448C95.8474 75.7903 96.0119 76.9957 96.1748 78.0977C96.3884 79.5423 96.1577 80.428 97.267 80.164C96.9863 77.0133 93.6538 56.1545 93.6866 54.9042L103.35 54.9589C103.757 55.6132 106.295 71.7434 106.619 73.906C106.865 75.5546 107.291 78.7767 107.667 80.1869L108.418 80.164C108.394 78.9993 106.719 69.4741 106.39 67.4184C106.088 65.5323 104.361 56.1801 104.403 54.898L114.124 55.0216L118.773 80.1869L119.537 80.1754L114.972 54.9934C115.729 54.8794 116.745 54.9174 117.525 54.9351C117.992 54.9457 118.393 54.9457 118.851 54.9307C119.331 54.9148 119.831 54.6605 119.555 55.3501C120.007 55.0772 120.014 55.0675 120.371 54.6428C120.402 54.6066 120.661 54.256 120.674 54.2349C120.88 53.909 120.708 54.2746 120.891 53.8189L61.5505 53.7077C61.0804 52.2993 60.9487 47.2148 60.6026 45.1574C60.4568 44.8713 59.4668 44.6452 59.208 44.5631C56.7034 43.7745 55.2698 42.7167 52.5835 42.7229C49.7772 42.729 37.6431 42.9842 36.8028 42.5348L36.3834 42.9366Z" fill="#2D3139"/>
<path fill-rule="evenodd" clip-rule="evenodd" d="M135.026 51.0286C135.382 51.418 139.464 60.2597 140.267 61.8086C140.843 62.9194 145.322 72.0923 145.377 72.7192C142.656 72.2256 140.422 71.7567 137.831 70.7448C135.673 69.9015 132.889 68.4833 131.561 66.8303C129.841 64.6916 129.041 60.7436 130.42 57.5312C130.57 57.1815 130.734 56.9767 130.794 56.4283C130.907 55.3969 130.02 56.2031 132.328 53.766C132.889 53.1726 134.546 51.2273 135.026 51.0286ZM126.655 46.6912C126.512 45.4973 126.955 44.4536 127.847 45.0611C128.501 45.507 128.387 46.5314 128.025 47.1883C127.147 47.4329 127.248 47.4188 126.655 46.6912ZM133.772 44.6081C133.244 43.7339 132.646 42.3882 133.944 41.8257C135.677 41.0751 136.123 45.0982 133.772 44.6081ZM121.275 53.4949C120.856 54.2216 121.218 53.7545 120.891 53.8189C120.708 54.2746 120.88 53.909 120.674 54.2349C120.661 54.256 120.402 54.6066 120.371 54.6428C120.014 55.0675 120.007 55.0772 119.555 55.3501C119.453 55.6804 117.471 57.8499 117.86 62.2359C118.151 65.5278 119.463 66.651 120.409 68.0798L121.323 68.7677C121.932 69.0608 122.362 69.4246 123.031 69.8185C127.693 72.5602 132.884 73.2437 137.932 73.9925C145.648 75.1378 144.724 75.2641 152.238 75.2641C153.105 75.2641 153.973 75.2676 154.841 75.2658L157.341 74.9921C157.203 74.4967 157.359 74.7466 157.037 74.6645C155.625 74.3219 146.92 72.9894 146.714 72.8278L137.555 54.0132C137.336 53.5558 137.181 53.2989 136.957 52.8406C136.784 52.4847 136.618 52.0503 136.398 51.6291C135.756 50.3972 135.408 50.6233 136.113 49.0815C137.151 46.8157 136.754 46.4324 138.527 44.715L135.911 44.7114C136.077 43.7383 136.167 43.4151 136.016 42.276C135.695 41.4681 135.481 41.0292 134.85 40.8897C133.711 40.4508 133.351 40.6116 132.674 41.5273C130.346 44.6726 127.798 43.5838 126.887 44.5083C124.917 46.5066 127.747 48.7998 127.747 48.8007C128.09 49.2546 129.445 52.4185 129.571 53.5523C128.588 53.5982 128.853 53.7015 127.659 50.4926C127.451 49.9328 127.26 49.3199 126.888 48.8069C126.453 48.2091 126.108 48.1914 125.783 47.5292C125.334 48.1023 125.348 48.2427 124.613 47.9407C124.288 46.7495 124.292 45.9583 125.31 45.7552C125.151 45.1326 125.441 44.843 125.725 43.8911C125.973 43.0593 126.273 42.3467 126.496 41.5432C126.852 40.2628 126.319 40.2204 126.453 38.8535C126.633 37.015 127.458 37.2172 127.938 37.2022C127.839 38.0066 127.615 38.464 127.6 39.204C127.584 40.0067 127.776 40.2698 127.722 40.948C127.642 41.9343 127.476 42.5198 127.082 43.1785C127.056 43.22 127.027 43.2536 127.002 43.2977C126.655 43.9026 126.896 43.1273 126.637 44.1437C127.513 43.8655 127.305 43.7737 127.628 42.7052C127.755 42.2858 128.135 41.3215 128.177 41.0619C128.271 40.4747 127.51 38.2751 128.47 37.7294C128.484 37.6658 128.549 37.4971 128.557 37.4583C128.562 37.4344 128.578 37.3638 128.581 37.3417C128.675 36.698 128.919 37.7832 128.535 37.0812C127.108 36.7872 125.883 36.9382 125.964 39.3718C126.013 40.8588 126.485 40.1638 125.929 41.7939C125.7 42.4615 125.495 43.2924 125.193 43.7789C124.37 44.5489 122.031 43.4558 122.174 46.3433C122.271 48.3221 123.692 47.8938 124.262 50.1297C123.948 50.9403 123.295 51.4259 122.771 51.9734C122.32 52.4441 121.753 53.2158 121.275 53.4949Z" fill="#0C1115"/>
<path fill-rule="evenodd" clip-rule="evenodd" d="M200.733 66.3764C200.381 66.9266 197.341 68.2423 196.539 68.6776L188.011 73.4512C186.991 74.0367 184.548 75.34 183.834 76.0394L183.785 82.5146L226.248 82.6762L226.27 79.1203C224.926 79.6262 216.23 79.2668 214.142 79.2668C210.275 79.2668 205.856 79.5388 202.059 79.228C201.822 78.5145 201.807 79.0814 201.665 78.3688C201.407 77.0743 201.623 79.0796 201.638 77.997C201.652 76.9233 201.653 78.0518 201.739 77.4452L201.787 77.1335C201.845 76.1886 201.804 77.6836 201.773 76.8641C201.757 76.4129 201.729 76.7431 201.76 76.1577L201.732 72.4066C201.732 69.8829 201.704 67.369 201.704 64.8488L206.476 64.6298C208.199 64.6298 209.731 64.6192 211.25 64.8479L211.402 70.8251C211.381 71.9104 211.234 71.4953 211.105 72.6053C211.372 72.9453 211.198 72.9091 211.695 73.0027L211.721 62.5512L202.965 62.5088L201.913 62.5521C201.579 61.0924 201.867 50.6922 201.787 48.0281L200.846 47.9424C201.098 49.5557 200.918 55.1718 200.918 57.2901C200.918 58.8813 200.92 60.4725 200.919 62.0638C200.919 62.8594 200.912 63.6585 200.922 64.4541C200.94 65.995 201.04 65.9579 200.733 66.3764Z" fill="#FFE164"/>
<path fill-rule="evenodd" clip-rule="evenodd" d="M74.2443 86.3081L73.3837 87.5673C72.7344 88.6022 71.8769 89.7042 71.1169 90.7302C70.6679 91.336 69.2102 93.4137 68.7658 93.7599C68.7752 91.9885 68.5109 92.4883 68.4119 91.5515L67.6519 91.5108C68.0721 92.4839 68.2981 92.5104 68.2124 94.0919C68.1531 95.186 67.6059 95.5727 67.1171 96.2244C67.6456 96.8152 69.8283 96.522 70.6632 96.5193C74.8259 96.5061 85.9622 96.7392 89.032 96.2986C90.1226 96.1414 95.4132 96.1308 96.39 96.3578C96.9622 96.1609 97.9054 94.5635 98.3388 93.9657C99.187 92.7983 103.704 86.7805 104.022 85.916C101.697 86.18 85.27 85.9531 81.5103 85.9531C80.0121 85.9531 75.2024 85.4992 74.2443 86.3081Z" fill="#FEE2B2"/>
<path fill-rule="evenodd" clip-rule="evenodd" d="M36.8028 42.5348C37.6431 42.9842 49.7772 42.729 52.5835 42.7229C55.2698 42.7167 56.7034 43.7745 59.208 44.5631C59.4668 44.6452 60.4568 44.8713 60.6026 45.1574C60.9487 47.2148 61.0804 52.2993 61.5505 53.7077L120.891 53.8189C121.218 53.7545 120.856 54.2216 121.275 53.4949C121.025 52.724 121.107 50.7336 121.18 49.7111C119.598 48.9782 67.4017 49.9098 65.5885 49.3756L64.7325 42.0668C63.4502 41.6491 59.2267 41.8963 57.6459 41.8999C56.6465 41.9016 54.9191 41.4981 54.12 42.0862C53.6554 42.427 54.4716 42.4986 52.7325 42.4562C50.3237 42.397 37.965 42.3008 36.8028 42.5348Z" fill="#FFE164"/>
<path fill-rule="evenodd" clip-rule="evenodd" d="M36.3834 42.9366L36.8028 42.5348C37.965 42.3008 50.3237 42.397 52.7325 42.4562C54.4716 42.4986 53.6554 42.427 54.12 42.0862C54.9191 41.4981 56.6465 41.9016 57.6459 41.8999C59.2267 41.8963 63.4502 41.6491 64.7325 42.0668L65.5885 49.3756C67.4017 49.9098 119.598 48.9782 121.18 49.7111L121.128 48.5376C120.121 47.7905 117.189 48.9076 116.326 47.9936C115.913 47.5556 116.305 47.9451 116.007 47.4329C115.674 46.8625 115.389 46.6523 114.788 46.6099L106.967 46.6497C105.559 46.6497 103.897 47.0249 103.334 46.1446C103.007 45.6307 103.274 45.7552 102.802 45.364C101.052 43.9158 94.3632 45.6033 92.8852 44.6461C92.1127 44.1463 91.5873 41.6173 89.9074 41.5255C88.2876 41.438 86.5453 41.589 84.9185 41.5264C84.7018 41.9564 84.2964 42.5401 84.1116 42.7652C83.7967 43.1494 83.5052 43.2094 82.9665 43.2156C76.9485 43.2853 78.6308 42.3458 76.0591 45.6254C75.331 46.5552 75.013 46.2603 73.7002 46.262H67.9052C66.9176 46.4598 67.2442 47.3737 66.1513 47.9618L65.4801 43.0301L65.0545 40.9206C64.19 40.51 61.3923 40.7528 60.2339 40.7422C59.1285 40.7926 36.2135 40.57 35.8845 40.8773C35.5657 41.1758 35.6203 42.3246 35.7528 42.8456L36.3834 42.9366Z" fill="#E8B36B"/>
<path fill-rule="evenodd" clip-rule="evenodd" d="M177.4 90.6843C182.131 90.2896 186.981 89.3333 191.726 89.0216C202.195 88.3337 210.794 88.1827 221.226 89.8932C226.214 90.7108 230.772 89.8711 231.44 97.1622C231.754 100.58 231.026 103.782 229.756 105.42C228.22 107.404 225.81 107.105 223.398 107.105C213.398 107.105 202.341 106.991 192.446 107.235C187.664 107.352 181.752 107.597 177.116 107.135C174.8 105.954 173.228 103.014 173.175 98.6633C173.126 94.6818 174.8 91.1091 177.4 90.6843ZM207.98 86.3708C207.626 86.5889 196.711 86.7893 195.337 86.8114C191.369 86.8759 187.396 87.5019 183.493 88.1147C181.538 88.422 179.56 88.6843 177.578 88.9421C171.272 89.7625 170.682 100.334 173.119 105.543C175.223 110.042 179.015 108.951 183.623 108.943C188.889 108.934 221.529 108.695 222.064 109.11C222.34 110.156 221.698 110.045 222.642 110.003C223.274 109.976 222.883 110.094 223.109 109.005C223.162 109.064 223.207 109.073 223.24 109.219C223.272 109.358 223.322 109.359 223.365 109.423C223.82 110.114 223.236 109.985 223.857 110.002C224.192 110.011 223.95 110.244 224.341 109.225C224.366 109.158 224.383 109.076 224.41 109.005C224.929 110.072 224.066 109.998 224.998 110.006C225.771 110.012 225.359 110.027 225.567 109.027C225.988 110.195 225.317 109.85 226.149 109.961C226.97 110.07 226.616 110.061 226.725 109.073C227.02 109.514 227.002 110.776 227.751 109.575L227.84 109.063C228.172 109.879 227.725 109.717 228.423 109.593C228.942 109.5 228.896 109.116 228.836 108.511C229.306 109.104 229.175 109.063 229.523 108.893C230.004 108.659 229.933 108.331 229.851 107.715C229.939 107.79 230.219 108.325 230.623 107.809C230.934 107.411 230.863 107.167 230.746 106.54C231.103 106.737 231.153 106.845 231.448 106.337C231.876 105.601 231.702 105.699 231.48 105.014C232.405 105.381 232.133 104.269 232.231 103.621C232.361 102.753 232.387 103.698 232.629 102.745C232.846 101.892 232.827 101.972 232.399 101.65C232.426 101.616 232.476 101.531 232.488 101.567C232.5 101.601 232.558 101.501 232.574 101.481C232.656 101.379 232.652 101.422 232.73 101.291C233.267 100.393 232.779 99.7768 232.574 99.4572C232.794 99.3786 233.212 99.3238 232.932 98.0814C232.825 97.6134 232.921 97.9313 232.769 97.6947L232.517 97.4677C232.927 97.0986 232.97 97.1896 232.769 96.1555C232.706 95.8359 232.727 95.8703 232.587 95.6769L232.242 95.4791C233.005 94.348 231.97 94.0221 231.857 93.1241C231.7 91.8923 231.577 91.751 231.018 92.0936C231.205 91.057 230.812 90.1112 230.068 90.7232C230.24 90.1722 230.234 89.9126 229.86 89.5496C229.207 88.9156 229.402 89.2847 229.028 89.7695C229.117 89.0075 229.179 88.7161 228.53 88.5871C227.904 88.4626 228.201 88.6163 227.939 89.2203C227.89 88.3982 228.095 88.3478 227.451 88.218C226.89 88.1059 226.91 88.5403 226.725 88.913C226.479 87.7483 227.008 88.2807 226.281 88.0052C225.482 87.7032 225.729 88.022 225.567 88.6781C225.3 87.7659 225.811 88.1121 225.114 87.8569C224.326 87.5681 224.559 87.8065 224.41 88.4944C224.123 87.6564 224.598 87.9319 223.948 87.7023C223.175 87.4295 223.397 87.607 223.254 88.2993L223.07 87.7924C222.925 87.5964 223.343 87.6132 222.671 87.5169C222.156 87.4427 222.197 87.7297 221.981 88.1633C221.921 87.2882 221.64 86.965 221.08 87.5001L220.805 87.9982C220.766 87.1858 221.069 87.3041 220.35 87.1822C219.523 87.041 219.929 87.0666 219.782 87.6997C219.482 87.1664 219.596 87.1867 219.312 87.0692C218.559 86.7575 218.741 87.1664 218.656 87.614C218.316 86.9633 218.42 87.026 218.145 86.9103C217.362 86.5809 217.551 87.0886 217.49 87.4092C217.466 87.3615 217.438 87.2264 217.424 87.2617C217.331 87.501 217.48 86.9332 216.985 86.7451C216.237 86.4599 216.403 86.882 216.321 87.2132C216.296 87.1708 216.266 87.0418 216.253 87.078C216.153 87.3483 216.338 86.7981 215.822 86.6189C214.966 86.3204 215.5 86.9394 214.884 86.6286C214.256 86.3107 214.27 86.0811 213.867 86.8864C213.756 86.3919 213.891 86.3443 213.403 86.2489C212.524 86.0776 212.92 86.3301 212.803 86.7505C212.782 86.7125 212.76 86.5942 212.751 86.6259C212.698 86.7937 212.64 86.4105 212.628 86.3955C212.257 85.9425 212.028 85.9601 211.572 86.467C211.547 86.4953 211.512 86.5544 211.484 86.6012C211.418 86.1235 211.506 85.9434 210.958 85.9354C210.229 85.9257 210.672 85.7774 210.381 86.5058C210.165 85.5478 210.625 86.0273 209.938 85.7994C209.072 85.5125 209.379 85.795 209.263 86.437C209.285 84.9535 208.4 85.7429 208.146 86.0864L207.98 86.3708Z" fill="#2D3139"/>
<path fill-rule="evenodd" clip-rule="evenodd" d="M0.0573137 110.197C0.168007 109.9 -0.0939149 109.898 0.793969 109.805C0.969363 109.787 1.45735 109.829 1.67094 109.833L27.411 109.812C27.4578 109.799 27.4936 109.787 27.5357 109.772L27.8631 109.571C26.9799 109.436 25.9658 108.29 25.5207 107.629C25.0561 106.939 24.2867 105.558 24.0731 104.545C23.932 103.77 22.8547 104.109 21.4866 104.109C20.5644 104.109 19.6407 104.127 18.7107 104.093L18.7411 96.0611L19.696 96.0346L19.6999 95.9392C20.1138 94.5714 20.7008 96.3383 20.718 94.6835C20.3773 94.4001 20.0772 94.5158 19.5962 94.4893C19.5269 93.306 19.4029 91.1267 19.6945 90.1439L19.7825 89.8887C18.5415 89.7006 16.8484 89.8401 15.5528 89.841C14.5355 89.8419 14.3898 89.7404 13.8534 90.551C13.4489 91.1638 13.1994 91.4755 12.78 92.0583L0.0409714 110.041C0.0401918 110.074 0.0409436 110.15 0.0573137 110.197Z" fill="#B7E8E7"/>
<path fill-rule="evenodd" clip-rule="evenodd" d="M19.5697 78.7379C19.6305 80.6912 19.5838 82.7716 19.5822 84.7389C19.5814 85.4966 19.5159 87.0666 19.5853 87.7297C19.7155 88.9881 20.5426 88.9527 19.7825 89.8887L19.6945 90.1439C19.5354 91.0446 19.4247 90.5793 21.6316 90.5987C25.0787 90.6287 36.2033 90.3391 37.8372 90.6799L37.8263 94.4354C39.7899 94.3259 41.9289 94.7895 43.9175 94.4584L44.1249 92.4937L40.405 92.3612L40.3434 73.2013C39.9864 74.9144 39.2653 77.605 38.0851 78.5145C37.4872 78.9745 21.1163 78.6973 19.5697 78.7379Z" fill="#FFE164"/>
<path fill-rule="evenodd" clip-rule="evenodd" d="M140.82 29.081C140.813 29.7636 140.854 29.3079 141.242 29.3795C141.338 29.3971 141.964 29.3786 142.109 29.3768C144.135 29.3565 143.702 28.9883 145.634 31.7672C148.756 36.2574 152.942 41.4398 155.762 45.7922L164.454 45.7234L164.253 44.3909L164.667 43.9715C163.662 37.792 163.632 38.8066 160.982 35.9209C159.871 34.7129 145.434 19.4322 144.776 19.0163C144.397 19.1364 143.941 20.6746 143.724 21.2901C143.387 22.2455 143.081 23.0111 142.729 23.9197C142.161 25.3856 141.308 27.4342 140.82 29.081Z" fill="#FDFBFB"/>
<path fill-rule="evenodd" clip-rule="evenodd" d="M19.5253 77.5025L21.0524 77.5184L25.2354 59.027C25.9674 58.7515 27.963 58.6765 28.6217 59.08L24.2516 77.5405L29.1517 77.5282C29.013 76.7652 32.9473 60.0354 33.3472 58.9723L36.6469 58.9184C35.4893 63.4889 34.4681 68.8984 33.4493 72.7872C33.0611 74.2663 32.7469 75.9572 32.3353 77.5211C37.474 77.4964 38.7119 79.2183 39.7783 71.7373C40.0324 69.9553 41.7029 59.5524 41.671 58.8054C39.9131 58.7983 38.1304 58.7674 36.3842 58.6932C34.596 58.6173 32.8015 58.816 31.0327 58.7188C27.5217 58.5272 24.0037 58.8301 20.4725 58.5784C20.9074 59.0491 21.9216 58.8124 22.5328 58.8425C20.2472 68.1116 20.5325 68.0489 19.5253 77.5025Z" fill="#65959A"/>
<path fill-rule="evenodd" clip-rule="evenodd" d="M50.5163 57.4923L51.6458 57.5312C51.7752 60.4434 51.6677 63.873 51.6661 66.8418C51.6645 70.1849 50.9435 69.6224 47.6094 70.6202C47.0809 70.8843 45.362 71.3125 44.6846 71.4768C43.6915 71.7161 42.4762 72.3236 41.9173 71.4203C42.8021 71.4618 44.4141 71.7902 44.7688 70.5664C44.9084 70.0878 44.9395 68.7385 44.839 68.206C44.6535 67.2224 44.3744 67.6082 43.5325 67.5667L43.5613 66.5468C44.4952 66.5415 44.7891 66.7994 44.9762 65.4413L44.9957 59.4712C44.8078 58.2385 44.3565 58.4937 43.4764 58.4469C43.6026 57.3237 43.9729 57.5356 44.7657 57.5471L50.5163 57.4923ZM23.9008 52.5597C21.7587 52.5129 20.6346 55.7581 20.4725 58.5784C24.0037 58.8301 27.5217 58.5272 31.0327 58.7188C32.8015 58.816 34.596 58.6173 36.3842 58.6932C38.1304 58.7674 39.9131 58.7983 41.671 58.8054C41.7029 59.5524 40.0324 69.9553 39.7783 71.7373C38.7119 79.2183 37.474 77.4964 32.3353 77.5211L29.1517 77.5282L24.2516 77.5405L21.0524 77.5184L19.5253 77.5025L19.5697 78.7379C21.1163 78.6973 37.4872 78.9745 38.0851 78.5145C39.2653 77.605 39.9864 74.9144 40.3434 73.2013C40.3699 72.8896 40.3746 72.6715 40.4322 72.3916L40.6458 71.8079C40.5476 69.8803 41.6936 66.01 41.6554 64.341C41.7762 67.6436 40.2062 71.2498 41.9204 72.5744C42.7358 73.204 46.8845 71.6375 48.0421 71.3063C50.864 70.4984 52.1377 71.1986 52.1346 66.84C52.1338 65.0457 52.3271 57.9718 51.9896 56.8927C51.3262 56.4698 44.5209 56.7161 43.4124 56.7656C43.251 57.2053 43.0016 57.5215 42.9821 58.0107C42.8519 56.7603 42.7007 55.4119 43.244 54.3117L43.4062 52.0441C41.7645 52.2039 40.3886 52.6383 38.6986 52.6339C36.5113 52.6286 25.0382 52.7717 23.9008 52.5597Z" fill="#2D3139"/>
<path fill-rule="evenodd" clip-rule="evenodd" d="M61.6768 96.4964L59.0669 96.5936C58.4082 97.3309 57.2779 98.8364 56.8196 99.6356C56.7907 99.6727 56.7471 99.7142 56.726 99.738C55.8405 100.728 54.8801 102.905 53.597 103.921L53.8238 104.102C54.633 104.538 64.5899 104.288 65.456 104.288C69.4027 104.288 73.5381 104.127 77.4607 104.324L77.5238 104.648C79.0447 103.726 82.3133 104.897 83.2222 104.013L86.3349 99.7265C89.1825 95.6893 87.9134 96.5918 93.3709 96.5927C93.9259 96.5927 95.9737 96.8037 96.39 96.3578C95.4132 96.1308 90.1226 96.1414 89.032 96.2986C85.9622 96.7392 74.8259 96.5061 70.6632 96.5193C69.8283 96.522 67.6456 96.8152 67.1171 96.2244C66.4382 96.9379 62.8297 96.5141 61.6768 96.4964Z" fill="#F1CC97"/>
<path fill-rule="evenodd" clip-rule="evenodd" d="M52.9601 83.4303L60.5394 83.4312L60.5714 55.3404C60.3516 55.1788 60.5425 55.2636 60.2183 55.1788L52.9265 55.1691C52.7628 56.3965 52.7995 82.5225 52.9601 83.4303Z" fill="#FFE164"/>
<path fill-rule="evenodd" clip-rule="evenodd" d="M50.9925 80.7786C50.1008 81.3402 48.1098 81.4144 48.8286 78.9834C49.2199 78.7635 50.2473 78.6063 50.7969 78.8606C51.6341 79.2474 51.0767 80.4121 50.9925 80.7786ZM43.4124 56.7656C44.5209 56.7161 51.3262 56.4698 51.9896 56.8927C52.3271 57.9718 52.1338 65.0457 52.1346 66.84C52.1377 71.1986 50.864 70.4984 48.0421 71.3063C46.8845 71.6375 42.7358 73.204 41.9204 72.5744C40.2062 71.2498 41.7762 67.6436 41.6554 64.341C41.6936 66.01 40.5476 69.8803 40.6458 71.8079C40.6723 72.6097 40.5398 73.5978 40.5351 74.3961L40.5811 92.1528L44.3689 92.1228C44.6207 90.1607 46.2382 86.9456 47.1151 85.7729C49.8349 82.1375 50.3167 84.1243 52.5539 83.2978L52.5134 55.1505L43.4366 55.1656L43.1894 56.6941C43.3251 56.8645 42.9088 57.0791 43.4124 56.7656Z" fill="#FFE164"/>
<path fill-rule="evenodd" clip-rule="evenodd" d="M202.965 62.5088L211.721 62.5512L211.695 73.0027C208.098 72.7952 208.526 72.6715 206.272 74.7069C204.882 75.9608 203.518 77.2571 202.145 78.382L202.059 79.228C205.856 79.5388 210.275 79.2668 214.142 79.2668C216.23 79.2668 224.926 79.6262 226.27 79.1203L226.266 73.1033L211.9 73.023L211.909 65.5243L226.242 65.4519L226.26 65.2108L211.939 65.1702L211.945 62.6501L224.799 62.6253C224.605 62.0531 224.314 61.6717 223.988 61.0597C223.445 60.0398 223.676 60.1758 222.565 60.0557C222.514 55.0048 223.171 57.8279 222.958 54.5333C220.797 54.6622 220.856 57.2106 220.8 60.0628L204.03 60.1405L202.965 62.5088Z" fill="#121519"/>
<path fill-rule="evenodd" clip-rule="evenodd" d="M36.6095 101.118C36.1074 101.26 34.1446 101.318 33.6379 101.206C32.6541 100.987 32.7999 99.0289 33.3339 98.6995C33.5958 98.5379 35.8307 98.5291 36.2205 98.5927C37.3188 98.7702 36.894 100.405 36.6095 101.118ZM20.8084 101.118C20.5847 100.682 20.2261 99.6832 20.6689 98.9026C20.9659 98.379 22.0104 98.5927 22.4992 98.5927C23.0418 98.5936 24.0676 98.3746 24.3428 98.9097C24.572 99.3574 24.5712 100.593 24.1456 100.943C23.7862 101.45 21.4422 101.294 20.8084 101.118ZM24.0731 104.545C24.105 104.509 24.1503 104.391 24.1682 104.433C24.1853 104.475 24.2407 104.35 24.2648 104.331C24.8214 103.927 28.6177 104.095 29.1525 104.159C29.0543 104.293 28.8742 103.944 29.0309 104.92C29.2078 106.022 29.3139 105.634 29.8143 105.396C29.5851 106.055 29.4705 106.168 29.7044 106.633C29.985 107.192 30.1526 106.962 30.4208 106.695C30.3787 107.473 29.992 107.227 30.5268 107.917C30.8565 108.344 31.1044 107.911 31.2985 107.826C31.1839 108.379 30.9501 108.466 31.3321 108.831C31.9557 109.427 31.7436 108.96 32.2223 108.525C32.0687 109.902 31.9767 109.215 32.7547 109.766L28.3784 109.766C28.6278 110.056 28.3534 109.876 28.7338 110.018C28.9513 110.099 28.9186 110.082 29.1439 110.101C30.6367 110.23 34.3285 110.159 35.3544 109.57C36.2828 109.432 37.3734 108.279 37.8076 107.574C38.2044 106.931 38.3198 106.754 38.6097 106.07C38.8701 105.453 39.1523 104.915 39.1702 104.125L43.552 104.2C43.1006 103.542 41.6522 103.836 41.013 103.833C39.8461 103.83 38.7805 104.122 38.6082 104.075L38.6269 96.0575L19.696 96.0346L18.7411 96.0611L18.7107 104.093C19.6407 104.127 20.5644 104.109 21.4866 104.109C22.8547 104.109 23.932 103.77 24.0731 104.545Z" fill="#2D3139"/>
<path fill-rule="evenodd" clip-rule="evenodd" d="M165.111 43.8196L165.809 43.8796C166.357 45.0779 170.237 64.2219 170.883 67.2268C171.603 70.5841 171.165 68.2202 171.553 71.5404C171.693 72.7298 172.049 74.4199 171.916 75.9193L170.864 75.9493L169.977 71.7364L164.84 71.8415L164.836 82.6082L182.548 82.5861L182.538 75.9396L173.639 75.9175C172.414 70.7677 171.279 65.2983 170.247 59.9313C169.641 56.7824 167.118 46.0748 167.018 43.877C166.817 42.7759 165.152 40.17 164.532 39.8522C164.246 40.5771 164.543 41.1352 164.698 41.9043C164.822 42.5215 164.952 43.3772 165.111 43.8196Z" fill="#FFE164"/>
<path fill-rule="evenodd" clip-rule="evenodd" d="M135.026 51.0286C134.546 51.2273 132.889 53.1726 132.328 53.766C130.02 56.2031 130.907 55.3969 130.794 56.4283C130.734 56.9767 130.57 57.1815 130.42 57.5312C129.041 60.7436 129.841 64.6916 131.561 66.8303C132.889 68.4833 135.673 69.9015 137.831 70.7448C140.422 71.7567 142.656 72.2256 145.377 72.7192C145.322 72.0923 140.843 62.9194 140.267 61.8086C139.464 60.2597 135.382 51.418 135.026 51.0286Z" fill="#2D3139"/>
<path fill-rule="evenodd" clip-rule="evenodd" d="M183.735 102.175L220.8 102.196L220.855 97.6408L183.78 97.6867L183.735 102.175Z" fill="#2D3139"/>
<path fill-rule="evenodd" clip-rule="evenodd" d="M51.2552 104.272L48.6961 104.273C48.0054 104.37 47.4106 105.488 46.9912 106.089C46.4744 106.831 45.9303 107.391 45.5218 108.21C45.0829 108.047 45.4111 108.311 45.118 107.998C45.0362 109.632 44.6362 108.725 44.3681 109.828L73.9247 109.869C74.8258 108.127 76.933 106.075 77.5238 104.648L77.4607 104.324C73.5381 104.127 69.4027 104.288 65.456 104.288C64.5899 104.288 54.633 104.538 53.8238 104.102L53.597 103.921L53.6562 104.336L51.2552 104.272Z" fill="#FEE2B2"/>
<path fill-rule="evenodd" clip-rule="evenodd" d="M178.236 74.6919L175.874 74.6795L174.485 74.6981C174.551 73.1625 174.41 69.4723 174.8 68.3915L177.685 68.3094L179.969 68.35L182.741 68.3703L182.558 74.5718L178.236 74.6919ZM178.225 66.4639L174.833 66.4276C174.988 62.1591 175.924 53.1346 176.835 50.1199L182.466 50.0475L182.785 51.169L184.415 51.2025C183.675 55.766 183.018 61.4165 182.88 66.5989L178.225 66.4639ZM167.018 43.877C167.118 46.0748 169.641 56.7824 170.247 59.9313C171.279 65.2983 172.414 70.7677 173.639 75.9175L182.538 75.9396L182.548 82.5861L164.836 82.6082L164.917 83.1186L183.044 83.1097C182.296 78.518 183.947 52.3266 185.648 48.5349L200.69 48.4705L200.733 66.3764C201.04 65.9579 200.94 65.995 200.922 64.4541C200.912 63.6585 200.919 62.8594 200.919 62.0638C200.92 60.4725 200.918 58.8813 200.918 57.2901C200.918 55.1718 201.098 49.5557 200.846 47.9424C200.557 47.8939 200.603 47.9883 200.282 47.4832L197.609 47.5247L197.398 47.976L178.819 47.9795C178.012 48.0307 177.314 48.0219 176.497 48.1022C175.965 48.1535 174.5 47.7146 174.304 48.4457C174.125 49.1142 174.107 50.3451 174.21 50.7045C174.428 51.4604 175.15 51.1911 175.832 51.1284C175.776 52.399 175.412 53.992 175.232 55.298C174.652 59.5118 174.273 64.017 174.072 68.2599C173.847 67.8061 173.694 67.1597 173.718 66.4974C173.515 66.2016 173.651 66.4462 173.496 66.0373L172.933 63.617C172.257 60.3992 169.127 44.8536 168.461 43.371C167.735 43.3683 167.395 43.3216 167.018 43.877Z" fill="#2D3139"/>
<path fill-rule="evenodd" clip-rule="evenodd" d="M20.7655 95.4509L21.92 95.4085C22.2474 95.3953 22.6052 95.3979 22.9334 95.4076L35.9508 95.4341C36.5557 95.4306 37.3851 95.2328 37.8708 95.7812C36.4637 96.3304 23.0807 95.5153 19.6999 95.9392L19.696 96.0346L38.6269 96.0575C39.6995 96.024 43.6175 95.8695 44.4032 96.1626L44.4508 103.237C44.5544 103.868 44.5303 103.16 45.5499 104.183C45.758 104.392 47.2976 104.241 47.6578 104.233C47.7006 102.031 47.7801 99.8828 47.8472 97.8589C48.629 93.5241 49.909 89.3651 53.3164 88.9024C54.969 88.6772 56.751 90.196 57.5835 91.1877C58.3887 92.1458 58.9235 93.4288 59.1519 94.9794C59.1831 95.1878 59.2454 95.6787 59.24 95.8765C59.2166 96.658 59.3484 96.1706 59.0669 96.5936L61.6768 96.4964L61.6667 91.3828C61.6791 90.0821 61.6986 88.5192 61.1334 87.8242L60.7047 87.0957C60.5371 86.5359 60.647 85.2626 60.5558 84.3283L52.8844 84.3725L52.8743 86.2251L52.5477 86.2392C52.5477 84.4687 52.8564 84.2983 51.585 84.3124C49.605 84.3345 48.8527 84.0352 47.0434 87.0648C44.6355 91.0967 45.1016 91.9215 44.195 95.3706L20.7655 95.4509Z" fill="#FFE164"/>
<path fill-rule="evenodd" clip-rule="evenodd" d="M157.037 74.6645C156.84 74.3042 157.244 74.5894 156.688 74.2548C155.755 73.7859 151.579 71.1509 150.915 70.2458C150.308 69.4184 149.957 68.8904 149.424 68.1222C147.469 65.3088 145.888 62.2951 144.523 58.5051C143.915 57.0128 143.01 52.3955 142.531 50.3257C141.673 46.6196 141.798 44.7158 138.527 44.715C136.754 46.4324 137.151 46.8157 136.113 49.0815C135.408 50.6233 135.756 50.3972 136.398 51.6291C136.618 52.0503 136.784 52.4847 136.957 52.8406C137.181 53.2989 137.336 53.5558 137.555 54.0132L146.714 72.8278C146.92 72.9894 155.625 74.3219 157.037 74.6645Z" fill="#2D3139"/>
<path fill-rule="evenodd" clip-rule="evenodd" d="M23.9008 52.5597C25.0382 52.7717 36.5113 52.6286 38.6986 52.6339C40.3886 52.6383 41.7645 52.2039 43.4062 52.0441L43.244 54.3117C43.3734 54.898 43.3703 54.5686 43.2074 54.7267C43.3344 54.5483 42.6453 54.5077 44.0344 54.445C48.2782 54.2525 57.6505 54.8574 60.5714 54.4123L60.6384 50.2851C60.417 50.0246 60.6353 50.1526 60.2533 50.0025L51.7159 49.9319C49.0515 49.9319 45.2131 49.6255 42.6874 50.0299C39.5202 50.3169 35.7146 50.0758 32.4788 50.0758C30.7919 50.0758 29.1042 50.0749 27.4165 50.0758C25.3554 50.0776 23.9125 49.4232 23.9008 52.5597Z" fill="#FFE164"/>
<path fill-rule="evenodd" clip-rule="evenodd" d="M144.177 98.0708L146.558 101.454L150.351 101.534C149.937 96.5423 150.706 92.6367 152.898 90.4274C154.717 88.596 159.654 88.4238 162.218 88.0865C165.576 87.6441 168.762 87.1549 172.198 86.8749L182.918 86.6401L182.756 85.7986C181.388 85.4365 177.232 85.7544 175.524 85.7579L170.114 85.8983C169.111 85.7297 169.497 85.682 169.16 86.278C168.815 85.6202 169.049 85.803 168.226 85.7659L168.003 86.4608C167.636 85.6379 168.212 85.8056 167.28 85.8003C166.63 86.0873 167.159 85.7924 166.845 86.6427C166.205 86.0732 167.081 85.9266 166.141 85.9743C165.664 85.9981 165.683 86.4264 165.544 86.7399C165.361 86.1915 165.504 85.9434 164.855 86.1606C164.259 86.361 164.705 86.1526 164.387 86.9147C164.197 86.3867 164.377 86.0864 163.691 86.3222C163.041 86.5456 163.564 86.2374 163.23 87.0895C163.045 86.6224 163.207 86.2524 162.526 86.4873C161.801 86.7381 162.424 86.3098 162.072 87.2485C161.846 86.7399 162.093 86.4017 161.362 86.6586C160.586 86.9324 161.268 86.4485 160.915 87.4127C160.675 86.9589 160.875 86.573 160.218 86.7822C159.573 86.9889 160.009 86.8644 159.759 87.5929C159.349 86.8679 159.968 86.905 159.171 86.9271C158.494 86.9447 158.787 86.9951 158.601 87.6926C158.578 87.6529 158.561 87.5876 158.546 87.5628C158.412 87.3333 158.348 86.98 157.885 87.0781C157.35 87.1902 157.51 87.207 157.473 87.9152C157.447 87.8728 157.426 87.8039 157.408 87.773C157.097 87.245 157.137 87.1514 156.726 87.2361C156.176 87.3509 156.368 87.3271 156.284 88.0891C155.862 87.3227 156.312 87.3324 155.316 87.4489C155.079 87.8701 155.193 87.5372 155.138 88.3019C154.599 87.3624 155.284 87.5911 154.536 87.5231C153.931 87.4684 154.026 87.8092 154.017 88.4282C153.988 88.3796 153.964 88.3064 153.943 88.2693C153.541 87.5726 153.557 87.7024 152.902 87.7668L152.769 88.6216C152.396 87.8728 152.942 87.9461 152.216 87.8534C151.531 87.7659 151.677 88.0979 151.68 88.7849C151.344 88.2693 151.447 87.9496 150.935 88.0255C150.14 88.143 150.732 88.0573 150.555 88.347L150.398 88.7858C150.389 88.7549 150.379 88.8944 150.357 88.9412C150.335 88.8962 150.319 88.8256 150.303 88.7955C150.241 88.6746 150.173 88.1686 149.644 88.2746C148.955 88.4123 149.382 88.4035 149.257 88.5836L149.098 88.9633C149.089 88.9342 149.077 89.0587 149.056 89.0975C148.862 88.4838 149.015 88.4088 148.473 88.6675C147.954 88.9156 148.036 89.0419 148.064 89.7739L147.699 89.4331C146.912 89.1602 146.961 90.7956 146.961 90.7982C146.404 90.0468 145.868 91.0393 146.117 92.0857C145.276 91.8773 145.452 92.3886 145.248 93.3528C145.145 93.8438 144.287 94.3286 144.852 95.4792C144.847 95.4827 144.543 95.752 144.514 95.7988C144.393 95.9948 144.362 96.0699 144.315 96.3657C144.178 97.2267 144.249 97.0739 144.559 97.4677L144.177 98.0708Z" fill="#0C1115"/>
<path fill-rule="evenodd" clip-rule="evenodd" d="M226.266 73.1033L226.242 65.4519L211.909 65.5243L211.9 73.023L226.266 73.1033Z" fill="#FFE164"/>
<path fill-rule="evenodd" clip-rule="evenodd" d="M144.776 19.0163C145.434 19.4322 159.871 34.7129 160.982 35.9209C163.632 38.8066 163.662 37.792 164.667 43.9715L165.111 43.8196C164.952 43.3772 164.822 42.5215 164.698 41.9043C164.543 41.1352 164.246 40.5771 164.532 39.8522C165.152 40.17 166.817 42.7759 167.018 43.877C167.395 43.3216 167.735 43.3683 168.461 43.371C169.127 44.8536 172.257 60.3992 172.933 63.617L173.496 66.0373C173.651 66.4462 173.515 66.2016 173.718 66.4974C173.761 64.4691 172.895 58.7074 172.556 56.6384C171.538 50.4334 171.036 44.7538 167.723 40.5656L165.968 33.5359C165.765 32.546 165.936 33.9659 165.62 32.6264C166.244 32.1981 166.271 32.584 166.666 31.6082C165.444 32.629 165.611 32.2158 164.883 31.2647L166.134 38.3439L155.795 27.5278C155.039 26.7216 146.081 17.026 145.327 16.7743C145.089 17.6706 144.807 17.8878 144.776 19.0163Z" fill="#FFE164"/>
<path fill-rule="evenodd" clip-rule="evenodd" d="M202.059 79.228L202.145 78.382C203.518 77.2571 204.882 75.9608 206.272 74.7069C208.526 72.6715 208.098 72.7952 211.695 73.0027C211.198 72.9091 211.372 72.9453 211.105 72.6053C211.234 71.4953 211.381 71.9104 211.402 70.8251L211.25 64.8479C209.731 64.6192 208.199 64.6298 206.476 64.6298L201.704 64.8488C201.704 67.369 201.732 69.8829 201.732 72.4066L201.76 76.1577C201.729 76.7431 201.757 76.4129 201.773 76.8641C201.804 77.6836 201.845 76.1886 201.787 77.1335L201.739 77.4452C201.653 78.0518 201.652 76.9233 201.638 77.997C201.623 79.0796 201.407 77.0743 201.665 78.3688C201.807 79.0814 201.822 78.5145 202.059 79.228Z" fill="#FFE164"/>
<path fill-rule="evenodd" clip-rule="evenodd" d="M136.169 12.9614C136.696 12.149 136.854 11.0382 137.34 10.1463C138.023 11.0258 138.183 13.1203 138.651 14.2824C139.952 14.2435 141.801 11.258 142.363 10.3008C143.986 7.54051 144.881 7.83721 146.733 9.72776L146.94 5.91486C146.956 5.21816 146.887 5.44598 147.087 5.03272C146.973 3.74439 147.336 1.54124 147.031 0.604352C146.31 -0.0146483 143.83 0.21847 142.994 0.794202C141.808 1.611 141.334 2.56555 140.286 3.44769C139.37 4.21857 135.225 7.62705 134.758 8.36084C134.949 9.41076 135.709 12.2514 136.169 12.9614Z" fill="#FFE164"/>
<path fill-rule="evenodd" clip-rule="evenodd" d="M146.558 101.454C146.593 101.483 146.649 101.458 146.67 101.523C146.759 101.798 149.262 101.692 149.489 101.691C150.517 101.688 151.663 101.719 152.671 101.685L157.452 101.629C158.147 101.738 158.023 102.029 158.437 102.512C158.844 102.015 159.574 102.32 160.727 102.103L160.742 97.7335L153.041 97.7282L153.013 101.562L151.948 101.516C150.87 99.2832 151.943 94.3939 152.939 92.8831C154.658 90.2729 155.993 90.7417 158.893 90.2755L169.646 88.9704C170.151 88.7903 169.993 88.6578 170.515 88.6958C171.235 88.7496 170.444 88.1545 171.447 88.3055C172.489 88.4627 171.229 88.3761 172.053 88.8556C172.352 87.9196 171.805 88.2931 172.496 88.0688C173.001 87.9055 173.068 88.4362 173.247 88.7417C173.283 88.1633 173.262 87.8339 173.777 87.8719C174.608 87.932 173.927 87.8172 174.366 88.6216C174.689 87.7509 174.132 87.9646 174.822 87.7448C175.628 87.4887 175.292 87.8843 175.524 88.4556C175.863 87.5249 175.263 87.8172 176.016 87.5752C176.682 87.3598 176.472 87.7244 176.681 88.2675C177.078 87.3651 176.371 87.6891 177.223 87.4128C177.883 87.1991 177.619 87.4922 177.837 88.0618C178.255 87.1487 177.554 87.5478 178.3 87.2856C178.658 87.1602 178.615 87.2291 178.828 87.4993L178.949 87.7492C178.962 87.7757 178.976 87.8419 178.995 87.8852C179.424 86.9686 178.949 87.2971 179.464 87.1134C180.203 86.8503 179.959 87.109 180.152 87.6821C180.174 87.6441 180.189 87.5205 180.198 87.5505C180.206 87.5814 180.235 87.4463 180.248 87.4225C180.579 86.7884 180.211 86.9518 180.744 86.9341C181.345 86.9147 181.087 86.8282 181.309 87.622C181.816 86.8458 181.023 87.1655 181.787 86.8529C182.642 86.5015 182.259 86.7858 182.466 87.4021C182.621 87.207 182.456 87.3686 182.606 87.1355C182.627 87.1028 182.706 86.9818 182.735 86.9421C182.756 86.9138 182.791 86.875 182.814 86.845C183.314 86.1889 183.035 87.1982 183.333 85.7685L182.756 85.7986L182.918 86.6401L172.198 86.8749C168.762 87.1549 165.576 87.6441 162.218 88.0865C159.654 88.4238 154.717 88.596 152.898 90.4274C150.706 92.6367 149.937 96.5423 150.351 101.534L146.558 101.454Z" fill="#2D3139"/>
<path fill-rule="evenodd" clip-rule="evenodd" d="M186.444 66.4621L191.998 66.478C192.484 64.8691 193.019 62.8788 193.561 61.2178L195.209 55.8587C195.162 54.2666 195.313 51.4074 195.016 50.1491L191.146 50.0635C190.888 51.3853 190.397 52.7275 189.971 54.1245C189.558 55.4755 189.136 56.876 188.765 58.2208C188.462 59.3166 186.454 65.7098 186.444 66.4621Z" fill="#8CB4BB"/>
<path fill-rule="evenodd" clip-rule="evenodd" d="M177.116 107.135C177.451 106.573 177.689 106.634 178.417 106.663L178.654 105.973C178.812 106.293 178.692 106.756 179.489 106.115C179.527 106.084 179.634 105.984 179.669 105.948L180.225 105.304C180.252 105.276 180.295 105.254 180.321 105.225C180.481 105.053 180.78 105.705 180.588 104.25C180.635 104.263 180.879 104.32 180.912 104.314C181.642 104.183 181.234 103.531 181.119 103.222C182.05 102.983 181.473 103.111 181.999 102.201L174.634 102.214L174.713 97.7521L182.349 97.6991L182.298 102.259L183.472 102.493L183.478 96.2757C182.738 96.3057 182.316 96.7454 181.995 96.1008C181.99 96.0902 181.836 95.5533 181.826 95.5118C181.635 94.8072 181.493 93.6566 180.917 94.1122C180.87 93.5091 180.855 92.989 180.467 92.4442C179.881 91.6204 181.059 92.9581 180.327 92.2729C179.763 91.7449 179.676 92.068 179.669 92.0663C179.213 91.9532 179.388 91.9206 179.139 91.4702C178.686 91.7201 179.064 91.3263 178.706 91.9056L178.47 91.1364L177.471 91.2362L177.4 90.6843C174.8 91.1091 173.126 94.6818 173.175 98.6633C173.228 103.014 174.8 105.954 177.116 107.135Z" fill="#0E1216"/>
<path fill-rule="evenodd" clip-rule="evenodd" d="M47.8472 97.8589C47.8635 98.9362 47.7022 98.2315 48.1099 98.6616C48.0865 98.7075 48.0374 98.7013 48.0241 98.7799C47.883 99.6144 47.7123 98.296 47.6694 99.6558L47.8355 100.319C47.8651 100.379 47.8986 100.416 47.9306 100.469C47.9633 100.524 48.0085 100.569 48.0382 100.612C48.0678 100.656 48.1161 100.701 48.1535 100.749C47.7419 100.925 47.6032 100.562 47.7115 101.614C47.7903 102.381 47.7217 101.809 47.869 102.074L48.1699 102.427C48.198 102.458 48.2502 102.489 48.2837 102.532C47.9579 102.72 47.7388 102.829 48.0693 103.653C48.6306 105.056 48.1325 102.896 48.6961 104.273L51.2552 104.272C50.6987 102.64 50.0907 102.101 50.291 99.4722C50.6722 94.4716 54.626 93.0085 56.1944 97.4757C56.5491 98.4858 56.461 99.1693 56.8196 99.6356C57.2779 98.8364 58.4082 97.3309 59.0669 96.5936C59.3484 96.1706 59.2166 96.658 59.24 95.8765C59.2454 95.6787 59.1831 95.1878 59.1519 94.9794C58.9235 93.4288 58.3887 92.1458 57.5835 91.1877C56.751 90.196 54.969 88.6772 53.3164 88.9024C49.909 89.3651 48.629 93.5241 47.8472 97.8589Z" fill="#353B3D"/>
<path fill-rule="evenodd" clip-rule="evenodd" d="M178.225 66.4639C178.349 65.474 181.041 56.9581 181.578 54.9077L182.785 51.169L182.466 50.0475L176.835 50.1199C175.924 53.1346 174.988 62.1591 174.833 66.4276L178.225 66.4639Z" fill="#78A5AB"/>
<path fill-rule="evenodd" clip-rule="evenodd" d="M19.6999 95.9392C23.0807 95.5153 36.4637 96.3304 37.8708 95.7812C37.3851 95.2328 36.5557 95.4306 35.9508 95.4341L22.9334 95.4076C22.6052 95.3979 22.2474 95.3953 21.92 95.4085L20.7655 95.4509L20.7811 94.4407L37.8263 94.4354L37.8372 90.6799C36.2033 90.3391 25.0787 90.6287 21.6316 90.5987C19.4247 90.5793 19.5354 91.0446 19.6945 90.1439C19.4029 91.1267 19.5269 93.306 19.5962 94.4893C20.0772 94.5158 20.3773 94.4001 20.718 94.6835C20.7008 96.3383 20.1138 94.5714 19.6999 95.9392Z" fill="#FFE164"/>
<path fill-rule="evenodd" clip-rule="evenodd" d="M146.94 5.91486C147.706 6.29456 150.234 8.96571 151.175 9.809C152.13 10.6655 151.603 10.0518 151.953 11.3587C152.234 12.406 157.98 17.3995 159.057 18.4838L163.24 22.4407C163.69 22.9979 164.395 23.5568 164.965 24.0036C165.431 23.6981 166.393 22.7082 166.538 22.0627L166.257 21.7316C167.577 19.9037 169.218 21.1214 169.826 22.9502C171.387 27.6417 169.971 27.2646 174.673 31.8078C175.939 33.0308 176.879 33.761 176.163 36.8419C176.107 37.5528 176.183 37.7152 176.536 38.1356C177.548 36.4198 177.534 33.6409 175.964 31.6162C174.971 30.3384 173.245 29.3079 172.194 27.4615C170.381 24.2809 170.848 19.69 167.853 19.5496C166.301 19.4763 166.214 20.4786 165.399 20.9448C163.004 18.9421 158.49 14.3504 155.773 11.8558C155.187 11.319 154.734 10.8448 154.152 10.3008C153.529 9.71716 153.161 9.04518 152.348 9.35777C152.621 10.1905 152.578 9.47609 152.857 10.4015C152.225 10.1101 151.931 9.6006 151.387 9.13878C150.959 8.77674 150.368 8.20101 149.919 7.76921L147.087 5.03272C146.887 5.44598 146.956 5.21816 146.94 5.91486Z" fill="#323335"/>
<path fill-rule="evenodd" clip-rule="evenodd" d="M29.1517 77.5282L32.3353 77.5211C32.7469 75.9572 33.0611 74.2663 33.4493 72.7872C34.4681 68.8984 35.4893 63.4889 36.6469 58.9184L33.3472 58.9723C32.9473 60.0354 29.013 76.7652 29.1517 77.5282Z" fill="#8FB6BD"/>
<path fill-rule="evenodd" clip-rule="evenodd" d="M65.4801 43.0301L66.1513 47.9618C67.2442 47.3737 66.9176 46.4598 67.9052 46.262H73.7002C75.013 46.2603 75.331 46.5552 76.0591 45.6254C78.6308 42.3458 76.9485 43.2853 82.9665 43.2156C83.5052 43.2094 83.7967 43.1494 84.1116 42.7652C84.2964 42.5401 84.7018 41.9564 84.9185 41.5264L69.3606 41.5361C68.3605 41.7833 68.4143 44.0536 65.4801 43.0301Z" fill="#FEE2B2"/>
<path fill-rule="evenodd" clip-rule="evenodd" d="M21.0524 77.5184L24.2516 77.5405L28.6217 59.08C27.963 58.6765 25.9674 58.7515 25.2354 59.027L21.0524 77.5184Z" fill="#8CB4BB"/>
<path fill-rule="evenodd" clip-rule="evenodd" d="M186.444 66.4621C186.454 65.7098 188.462 59.3166 188.765 58.2208C189.136 56.876 189.558 55.4755 189.971 54.1245C190.397 52.7275 190.888 51.3853 191.146 50.0635L186.504 50.0785C185.765 51.5054 185.292 55.4481 185.013 57.5939C184.789 59.3167 184.069 64.9424 184.401 66.3367L186.444 66.4621Z" fill="#548D94"/>
<path fill-rule="evenodd" clip-rule="evenodd" d="M47.6094 70.6202C48.191 68.2228 48.5838 66.3597 49.124 64.055C49.3563 63.0607 49.6058 61.9092 49.8319 60.8531C50.054 59.8156 50.4703 58.6614 50.5163 57.4923L44.7657 57.5471C43.9729 57.5356 43.6026 57.3237 43.4764 58.4469C44.3565 58.4937 44.8078 58.2385 44.9957 59.4712L44.9762 65.4413C44.7891 66.7994 44.4952 66.5415 43.5613 66.5468L43.5325 67.5667C44.3744 67.6082 44.6535 67.2224 44.839 68.206C44.9395 68.7385 44.9084 70.0878 44.7688 70.5664C44.4141 71.7902 42.8021 71.4618 41.9173 71.4203C42.4762 72.3236 43.6915 71.7161 44.6846 71.4768C45.362 71.3125 47.0809 70.8843 47.6094 70.6202Z" fill="#7BAAB2"/>
<path fill-rule="evenodd" clip-rule="evenodd" d="M43.552 104.2C43.4389 105.135 43.8107 105.553 44.1342 106.298C44.3057 106.693 44.3626 106.756 44.57 107.079C44.814 107.46 44.8982 107.65 45.118 107.998C45.4111 108.311 45.0829 108.047 45.5218 108.21C45.9303 107.391 46.4744 106.831 46.9912 106.089C47.4106 105.488 48.0054 104.37 48.6961 104.273C48.1325 102.896 48.6306 105.056 48.0693 103.653C47.7388 102.829 47.9579 102.72 48.2837 102.532C48.2502 102.489 48.198 102.458 48.1699 102.427L47.869 102.074C47.7217 101.809 47.7903 102.381 47.7115 101.614C47.6032 100.562 47.7419 100.925 48.1535 100.749C48.1161 100.701 48.0678 100.656 48.0382 100.612C48.0085 100.569 47.9633 100.524 47.9306 100.469C47.8986 100.416 47.8651 100.379 47.8355 100.319L47.6694 99.6558C47.7123 98.296 47.883 99.6144 48.0241 98.7799C48.0374 98.7013 48.0865 98.7075 48.1099 98.6616C47.7022 98.2315 47.8635 98.9362 47.8472 97.8589C47.7801 99.8828 47.7006 102.031 47.6578 104.233C47.2976 104.241 45.758 104.392 45.5499 104.183C44.5303 103.16 44.5544 103.868 44.4508 103.237L44.4032 96.1626C43.6175 95.8695 39.6995 96.024 38.6269 96.0575L38.6082 104.075C38.7805 104.122 39.8461 103.83 41.013 103.833C41.6522 103.836 43.1006 103.542 43.552 104.2Z" fill="#2D3139"/>
<path fill-rule="evenodd" clip-rule="evenodd" d="M164.667 43.9715L164.253 44.3909L164.454 45.7234L169.977 71.7364L170.864 75.9493L171.916 75.9193C172.049 74.4199 171.693 72.7298 171.553 71.5404C171.165 68.2202 171.603 70.5841 170.883 67.2268C170.237 64.2219 166.357 45.0779 165.809 43.8796L165.111 43.8196L164.667 43.9715Z" fill="#2D3139"/>
<path fill-rule="evenodd" clip-rule="evenodd" d="M146.733 9.72776C147.167 10.5737 147.594 11.0055 148.007 11.9883C149.308 13.4082 158.869 20.0468 161.019 21.7537C161.551 22.1766 162.298 23.0217 162.925 23.0482L163.24 22.4407L159.057 18.4838C157.98 17.3995 152.234 12.406 151.953 11.3587C151.603 10.0518 152.13 10.6655 151.175 9.809C150.234 8.96571 147.706 6.29456 146.94 5.91486L146.733 9.72776Z" fill="#FAF7F7"/>
<path fill-rule="evenodd" clip-rule="evenodd" d="M178.225 66.4639L182.88 66.5989C183.018 61.4165 183.675 55.766 184.415 51.2025L182.785 51.169L181.578 54.9077C181.041 56.9581 178.349 65.474 178.225 66.4639Z" fill="#588B95"/>
<path fill-rule="evenodd" clip-rule="evenodd" d="M61.1334 87.8242C61.6986 88.5192 61.6791 90.0821 61.6667 91.3828L66.7577 91.3863C67.3689 91.3554 67.5677 91.0958 68.0517 91.276C68.4236 91.4137 68.2677 91.3537 68.4119 91.5515C68.5109 92.4883 68.7752 91.9885 68.7658 93.7599C69.2102 93.4137 70.6679 91.336 71.1169 90.7302C71.8769 89.7042 72.7344 88.6022 73.3837 87.5673C72.817 87.1002 71.3203 87.3977 70.5182 87.3977L61.4063 87.3412C60.9479 87.5107 61.2418 87.0648 61.1334 87.8242Z" fill="#121315"/>
<path fill-rule="evenodd" clip-rule="evenodd" d="M51.2552 104.272L53.6562 104.336L53.597 103.921C54.8801 102.905 55.8405 100.728 56.726 99.738C56.7471 99.7142 56.7907 99.6727 56.8196 99.6356C56.461 99.1693 56.5491 98.4858 56.1944 97.4757C54.626 93.0085 50.6722 94.4716 50.291 99.4722C50.0907 102.101 50.6987 102.64 51.2552 104.272Z" fill="#FFE164"/>
<path fill-rule="evenodd" clip-rule="evenodd" d="M136.169 12.9614C135.731 15.7553 132.215 22.9025 132.331 24.9061C133.05 24.6394 132.471 24.7224 133.001 24.5988C133.725 25.5277 133.117 24.6888 133.343 25.6946C134.226 25.5542 134.036 25.3661 134.821 23.1648L137.85 14.6268C138.98 17.7112 142.325 12.0086 142.713 11.3737C145.638 6.59127 146.118 12.3919 148.007 11.9883C147.594 11.0055 147.167 10.5737 146.733 9.72776C144.881 7.83721 143.986 7.54051 142.363 10.3008C141.801 11.258 139.952 14.2435 138.651 14.2824C138.183 13.1203 138.023 11.0258 137.34 10.1463C136.854 11.0382 136.696 12.149 136.169 12.9614Z" fill="#31332D"/>
<path fill-rule="evenodd" clip-rule="evenodd" d="M113.785 99.0731C112.89 99.4236 112.152 99.6276 111.515 100.532C110.753 101.615 111.421 102.918 112.038 103.405C114.247 105.149 118.613 104.859 119.895 102.912C121.764 100.075 117.139 97.7609 113.785 99.0731Z" fill="#CA954E"/>
<path fill-rule="evenodd" clip-rule="evenodd" d="M93.0216 106.977C88.212 107.652 85.0026 102.459 91.7331 101.345C96.8382 100.5 99.4543 106.075 93.0216 106.977Z" fill="#CA954E"/>
<path fill-rule="evenodd" clip-rule="evenodd" d="M133.362 98.5203C132.411 98.764 131.65 98.7446 130.881 99.3724C130.287 99.8563 129.631 100.934 130.231 102.079C131.951 105.36 140.115 103.873 138.251 100.195C137.427 98.5689 134.79 98.1547 133.362 98.5203Z" fill="#CA954E"/>
<path fill-rule="evenodd" clip-rule="evenodd" d="M35.3544 109.57C35.9141 110.13 43.7452 109.842 44.3681 109.828C44.6362 108.725 45.0362 109.632 45.118 107.998C44.8982 107.65 44.814 107.46 44.57 107.079C44.3626 106.756 44.3057 106.693 44.1342 106.298C43.8107 105.553 43.4389 105.135 43.552 104.2L39.1702 104.125C39.1523 104.915 38.8701 105.453 38.6097 106.07C38.3198 106.754 38.2044 106.931 37.8076 107.574C37.3734 108.279 36.2828 109.432 35.3544 109.57Z" fill="#B7E8E7"/>
<path fill-rule="evenodd" clip-rule="evenodd" d="M196.308 63.798C196.327 64.9009 196.221 65.9111 196.486 66.8471C197.201 67.1579 199.751 65.7575 200.321 65.0475L200.433 50.8794C200.006 51.2741 200.095 51.3005 199.805 52.3266C199.197 54.4839 196.732 63.1817 196.308 63.798Z" fill="#8CB4BB"/>
<path fill-rule="evenodd" clip-rule="evenodd" d="M226.26 65.2108C225.736 64.1848 225.456 63.4519 224.799 62.6253L211.945 62.6501L211.939 65.1702L226.26 65.2108Z" fill="#FFE164"/>
<path fill-rule="evenodd" clip-rule="evenodd" d="M226.343 94.6924C224.724 95.5127 224.274 97.3635 224.498 99.8634C224.671 101.787 225.885 103.928 227.647 103.114C230.663 101.719 229.516 93.0853 226.343 94.6924Z" fill="#2D3139"/>
<path fill-rule="evenodd" clip-rule="evenodd" d="M156.688 74.2548C156.331 73.3338 148.699 63.1013 147.928 62.032C147.439 61.3538 147.017 60.7834 146.485 60.0416C145.44 58.5873 145.745 58.574 144.523 58.5051C145.888 62.2951 147.469 65.3088 149.424 68.1222C149.957 68.8904 150.308 69.4184 150.915 70.2458C151.579 71.1509 155.755 73.7859 156.688 74.2548Z" fill="#D5A66A"/>
<path fill-rule="evenodd" clip-rule="evenodd" d="M181.999 102.201L182.298 102.259L182.349 97.6991L174.713 97.7521L174.634 102.214L181.999 102.201Z" fill="#2D3139"/>
<path fill-rule="evenodd" clip-rule="evenodd" d="M129.385 41.431C130.035 41.333 130.349 41.9396 130.895 42.3732C130.612 43.0187 129.677 43.4893 128.999 43.6703L129.385 41.431ZM128.47 37.7294L128.79 37.5678C129.303 37.3638 129.254 37.4335 129.836 37.5863C130.429 38.9523 130.402 40.6204 128.951 40.8703C127.807 40.0482 128.215 39.0981 128.47 37.7294ZM128.47 37.7294C127.51 38.2751 128.271 40.4747 128.177 41.0619C128.135 41.3215 127.755 42.2858 127.628 42.7052C127.305 43.7737 127.513 43.8655 126.637 44.1437C126.896 43.1273 126.655 43.9026 127.002 43.2977C127.027 43.2536 127.056 43.22 127.082 43.1785C127.476 42.5198 127.642 41.9343 127.722 40.948C127.776 40.2698 127.584 40.0067 127.6 39.204C127.615 38.464 127.839 38.0066 127.938 37.2022C127.458 37.2172 126.633 37.015 126.453 38.8535C126.319 40.2204 126.852 40.2628 126.496 41.5432C126.273 42.3467 125.973 43.0593 125.725 43.8911C125.441 44.843 125.151 45.1326 125.31 45.7552C124.292 45.9583 124.288 46.7495 124.613 47.9407C125.348 48.2427 125.334 48.1023 125.783 47.5292C126.108 48.1914 126.453 48.2091 126.888 48.8069C127.26 49.3199 127.451 49.9328 127.659 50.4926C128.853 53.7015 128.588 53.5982 129.571 53.5523C129.445 52.4185 128.09 49.2546 127.747 48.8007C127.747 48.7998 124.917 46.5066 126.887 44.5083C127.798 43.5838 130.346 44.6726 132.674 41.5273C133.351 40.6116 133.711 40.4508 134.85 40.8897C134.229 40.0817 133.016 40.8191 132.37 40.9427C131.779 41.0566 131.028 40.0976 130.548 39.7727C130.535 38.8331 130.465 38.1108 130.231 37.43C130.024 37.2419 129.794 36.9549 129.455 36.8181C128.967 36.622 128.857 36.5735 128.535 37.0812C128.919 37.7832 128.675 36.698 128.581 37.3417C128.578 37.3638 128.562 37.4344 128.557 37.4583C128.549 37.4971 128.484 37.6658 128.47 37.7294Z" fill="#3C4244"/>
<path fill-rule="evenodd" clip-rule="evenodd" d="M61.6768 96.4964C62.8297 96.5141 66.4382 96.9379 67.1171 96.2244C67.6059 95.5727 68.1531 95.186 68.2124 94.0919C68.2981 92.5104 68.0721 92.4839 67.6519 91.5108L68.4119 91.5515C68.2677 91.3537 68.4236 91.4137 68.0517 91.276C67.5677 91.0958 67.3689 91.3554 66.7577 91.3863L61.6667 91.3828L61.6768 96.4964Z" fill="#343638"/>
<path fill-rule="evenodd" clip-rule="evenodd" d="M184.06 74.1665C184.537 74.5639 188.452 71.7903 188.903 71.5006L193.182 69.0352C193.785 68.6803 193.512 68.9823 193.769 68.4215C191.393 68.4392 189.042 68.3173 186.661 68.3385C185.503 68.3491 184.212 68.0312 184.08 69.6127C183.99 70.6891 183.785 73.4 184.06 74.1665Z" fill="#7BAAB2"/>
<path fill-rule="evenodd" clip-rule="evenodd" d="M47.6094 70.6202C50.9435 69.6224 51.6645 70.1849 51.6661 66.8418C51.6677 63.873 51.7752 60.4434 51.6458 57.5312L50.5163 57.4923C50.4703 58.6614 50.054 59.8156 49.8319 60.8531C49.6058 61.9092 49.3563 63.0607 49.124 64.055C48.5838 66.3597 48.191 68.2228 47.6094 70.6202Z" fill="#548D94"/>
<path fill-rule="evenodd" clip-rule="evenodd" d="M196.308 63.798C196.732 63.1817 199.197 54.4839 199.805 52.3266C200.095 51.3005 200.006 51.2741 200.433 50.8794L200.418 50.0908L196.328 50.059L196.308 63.798Z" fill="#548D94"/>
<path fill-rule="evenodd" clip-rule="evenodd" d="M24.0731 104.545C24.2867 105.558 25.0561 106.939 25.5207 107.629C25.9658 108.29 26.9799 109.436 27.8631 109.571L28.3784 109.766L32.7547 109.766C31.9767 109.215 32.0687 109.902 32.2223 108.525C31.7436 108.96 31.9557 109.427 31.3321 108.831C30.9501 108.466 31.1839 108.379 31.2985 107.826C31.1044 107.911 30.8565 108.344 30.5268 107.917C29.992 107.227 30.3787 107.473 30.4208 106.695C30.1526 106.962 29.985 107.192 29.7044 106.633C29.4705 106.168 29.5851 106.055 29.8143 105.396C29.3139 105.634 29.2078 106.022 29.0309 104.92C28.8742 103.944 29.0543 104.293 29.1525 104.159C28.6177 104.095 24.8214 103.927 24.2648 104.331C24.2407 104.35 24.1853 104.475 24.1682 104.433C24.1503 104.391 24.105 104.509 24.0731 104.545Z" fill="#0C1115"/>
<path fill-rule="evenodd" clip-rule="evenodd" d="M185.884 85.7712C186.804 86.875 186.908 85.2935 187.064 86.7867C187.09 86.7425 187.115 86.603 187.126 86.6375L187.324 86.241C187.33 86.233 187.549 85.5955 188.112 86.105L188.335 86.452C188.352 86.4811 188.372 86.55 188.396 86.5933L188.625 86.0202C188.743 85.8524 188.415 85.8171 188.992 85.758C189.476 85.7076 189.469 85.9425 189.549 86.4962C190.23 85.4392 189.414 85.9487 191.189 85.8357C191.793 85.7968 191.701 85.9619 191.973 85.9566C192.663 85.9452 193.408 85.7447 194.972 85.8074C194.895 84.9253 194.432 84.0131 194.204 83.1009L185.152 83.1495L185.884 85.7712Z" fill="#2D3139"/>
<path fill-rule="evenodd" clip-rule="evenodd" d="M204.24 89.8199L204.276 95.5127C204.93 95.7264 207.794 95.7688 208.357 95.4942L208.365 89.7104L204.24 89.8199Z" fill="#0C1115"/>
<path fill-rule="evenodd" clip-rule="evenodd" d="M166.538 22.0627C167.662 22.1978 167.465 22.3691 167.983 23.3078C168.281 23.8509 168.671 24.4513 169.008 25.0756C170.292 27.4607 170.48 26.9935 170.621 29.0333C172.064 30.2316 173.839 32.795 174.847 34.7227C175.049 35.1085 175.22 35.4909 175.428 35.9377C175.486 36.0631 175.7 36.4808 175.732 36.5205C176.05 36.9081 175.61 36.6432 176.163 36.8419C176.879 33.761 175.939 33.0308 174.673 31.8078C169.971 27.2646 171.387 27.6417 169.826 22.9502C169.218 21.1214 167.577 19.9037 166.257 21.7316L166.538 22.0627Z" fill="#FCF9E9"/>
<path fill-rule="evenodd" clip-rule="evenodd" d="M192.761 95.5657L196.86 95.6328L196.909 89.8022L192.85 89.8552L192.761 95.5657Z" fill="#0C1115"/>
<path fill-rule="evenodd" clip-rule="evenodd" d="M178.236 74.6919L182.558 74.5718L182.741 68.3703L179.969 68.35C179.629 70.2035 178.386 72.9762 178.236 74.6919Z" fill="#78A5AB"/>
<path fill-rule="evenodd" clip-rule="evenodd" d="M191.998 66.478L194.338 66.4824C194.917 66.433 194.685 66.5875 195.036 66.2184C195.463 65.346 195.2 57.5974 195.209 55.8587L193.561 61.2178C193.019 62.8788 192.484 64.8691 191.998 66.478Z" fill="#548D94"/>
<path fill-rule="evenodd" clip-rule="evenodd" d="M162.14 102.076L165.542 102.15C166.166 102.066 165.727 102.285 166.254 101.645C165.904 100.698 165.96 101.966 165.831 100.64C165.725 99.5437 165.84 100.104 166.11 99.4572C165.781 99.1914 165.901 99.3786 165.801 98.8541C165.757 98.6227 165.788 98.0867 165.772 97.7777L162.143 97.7247L162.14 102.076Z" fill="#2D3139"/>
<path fill-rule="evenodd" clip-rule="evenodd" d="M175.874 74.6795L178.236 74.6919C178.386 72.9762 179.629 70.2035 179.969 68.35L177.685 68.3094C177.446 69.5712 177.025 70.4834 176.724 71.6525C176.467 72.6494 176.055 73.5846 175.874 74.6795Z" fill="#55868C"/>
<path fill-rule="evenodd" clip-rule="evenodd" d="M175.874 74.6795C176.055 73.5846 176.467 72.6494 176.724 71.6525C177.025 70.4834 177.446 69.5712 177.685 68.3094L174.8 68.3915C174.41 69.4723 174.551 73.1625 174.485 74.6981L175.874 74.6795Z" fill="#6E9BA4"/>
<path fill-rule="evenodd" clip-rule="evenodd" d="M20.8084 101.118C21.4422 101.294 23.7862 101.45 24.1456 100.943C24.5712 100.593 24.572 99.3574 24.3428 98.9097C24.0676 98.3746 23.0418 98.5936 22.4992 98.5927C22.0104 98.5927 20.9659 98.379 20.6689 98.9026C20.2261 99.6832 20.5847 100.682 20.8084 101.118Z" fill="#C9CFCC"/>
<path fill-rule="evenodd" clip-rule="evenodd" d="M36.6095 101.118C36.894 100.405 37.3188 98.7702 36.2205 98.5927C35.8307 98.5291 33.5958 98.5379 33.3339 98.6995C32.7999 99.0289 32.6541 100.987 33.6379 101.206C34.1446 101.318 36.1074 101.26 36.6095 101.118Z" fill="#C9CFCC"/>
<path fill-rule="evenodd" clip-rule="evenodd" d="M128.47 37.7294C128.215 39.0981 127.807 40.0482 128.951 40.8703C130.402 40.6204 130.429 38.9523 129.836 37.5863C129.254 37.4335 129.303 37.3638 128.79 37.5678L128.47 37.7294Z" fill="#727E81"/>
<path fill-rule="evenodd" clip-rule="evenodd" d="M50.9925 80.7786C51.0767 80.4121 51.6341 79.2474 50.7969 78.8606C50.2473 78.6063 49.2199 78.7635 48.8286 78.9834C48.1098 81.4144 50.1008 81.3402 50.9925 80.7786Z" fill="#1E211F"/>
<path fill-rule="evenodd" clip-rule="evenodd" d="M133.944 41.8257C135.677 41.0751 136.123 45.0982 133.772 44.6081C133.244 43.7339 132.646 42.3882 133.944 41.8257Z" fill="#5F625A"/>
<path fill-rule="evenodd" clip-rule="evenodd" d="M197.609 47.5247L200.282 47.4832C200.2 46.5578 200.374 45.8417 199.801 45.5538C199.541 45.4232 197.959 45.0046 197.695 46.3998C197.641 46.6823 197.637 47.1892 197.609 47.5247Z" fill="#EB7030"/>
<path fill-rule="evenodd" clip-rule="evenodd" d="M182.561 105.875C183.066 106.052 183.767 106.077 184.223 105.851L184.227 103.107C183.687 102.964 183.039 102.898 182.529 103.139L182.561 105.875Z" fill="#2D2E32"/>
<path fill-rule="evenodd" clip-rule="evenodd" d="M199.522 105.976L201.176 105.945L201.213 103.121L199.484 102.979L199.522 105.976Z" fill="#2D2E32"/>
<path fill-rule="evenodd" clip-rule="evenodd" d="M189.335 105.913L191.047 105.952L191.008 103.131C190.494 102.937 189.83 102.908 189.339 103.131L189.335 105.913Z" fill="#2D3139"/>
<path fill-rule="evenodd" clip-rule="evenodd" d="M209.702 105.953L211.358 105.987L211.381 103.061L209.708 103.014L209.702 105.953Z" fill="#2D3139"/>
<path fill-rule="evenodd" clip-rule="evenodd" d="M196.142 105.88L197.765 105.968L197.838 103.023L196.107 103.032L196.142 105.88Z" fill="#2D3139"/>
<path fill-rule="evenodd" clip-rule="evenodd" d="M216.487 105.92L218.128 105.972L218.183 103.086L216.477 103.009L216.487 105.92Z" fill="#2D3139"/>
<path fill-rule="evenodd" clip-rule="evenodd" d="M202.927 105.924L204.543 105.975L204.596 103.061L202.888 103.003L202.927 105.924Z" fill="#2D3139"/>
<path fill-rule="evenodd" clip-rule="evenodd" d="M206.313 105.965L207.975 105.955L207.981 103.143L206.305 102.978L206.313 105.965Z" fill="#2D3139"/>
<path fill-rule="evenodd" clip-rule="evenodd" d="M192.74 105.943L194.375 105.964L194.4 103.106L192.729 102.988L192.74 105.943Z" fill="#2D3139"/>
<path fill-rule="evenodd" clip-rule="evenodd" d="M185.962 105.918L187.609 105.973L187.63 103.096L185.963 103.019L185.962 105.918Z" fill="#2D3139"/>
<path fill-rule="evenodd" clip-rule="evenodd" d="M160.71 105.69C160.855 105.915 160.997 106.107 161.155 106.313C161.421 105.671 161.049 106.081 161.78 105.929C161.845 105.916 162.472 105.949 162.587 105.954L162.588 103.116L160.972 103.034C160.979 104.256 161.127 105.195 160.71 105.69Z" fill="#2D3139"/>
<path fill-rule="evenodd" clip-rule="evenodd" d="M164.883 31.2647C165.611 32.2158 165.444 32.629 166.666 31.6082C166.598 30.2652 166.707 30.236 166.173 29.413C165.035 29.3212 164.985 29.8254 164.883 31.2647Z" fill="#31332D"/>
<path fill-rule="evenodd" clip-rule="evenodd" d="M126.655 46.6912C127.248 47.4188 127.147 47.4329 128.025 47.1883C128.387 46.5314 128.501 45.507 127.847 45.0611C126.955 44.4536 126.512 45.4973 126.655 46.6912Z" fill="#5F625A"/>
<path fill-rule="evenodd" clip-rule="evenodd" d="M128.999 43.6703C129.677 43.4893 130.612 43.0187 130.895 42.3732C130.349 41.9396 130.035 41.333 129.385 41.431L128.999 43.6703Z" fill="#DB9834"/>
<path fill-rule="evenodd" clip-rule="evenodd" d="M166.99 25.2743C168.203 25.4271 167.966 24.1255 167.607 23.2478L166.908 23.201C166.492 24.1882 166.382 24.5273 166.99 25.2743Z" fill="#6D5150"/>
</g>
</svg>
