<svg width="338" height="160" viewBox="0 0 338 160" fill="none" xmlns="http://www.w3.org/2000/svg">
<path d="M215.432 72H158.569C148.492 72 142.215 61.4576 147.307 53.0698L175.739 6.22156C180.77 -2.07385 193.216 -2.07385 198.262 6.22156L226.694 53.0698C231.786 61.4576 225.509 72 215.432 72Z" fill="white"/>
<path d="M176.914 74H122.093C112.388 74 106.338 63.7427 111.237 55.5926L138.647 10.0545C143.5 1.98185 155.493 1.98185 160.345 10.0545L187.756 55.5926C192.67 63.7582 186.619 74 176.914 74Z" fill="#D7EEEB"/>
<path d="M0.500488 159.152V101.305H12.5325V125.173H36.9582V101.305H48.9628V159.152H36.9582V135.256H12.5325V159.152H0.500488ZM86.0321 140.68V115.767H97.8698V159.152H86.5046V151.272H86.0599C85.0966 153.814 83.4942 155.857 81.2527 157.401C79.0295 158.945 76.3155 159.717 73.1107 159.717C70.2575 159.717 67.7474 159.058 65.5803 157.74C63.4127 156.422 61.7177 154.548 60.4948 152.119C59.2906 149.69 58.6794 146.781 58.6607 143.391V115.767H70.4984V141.244C70.5171 143.806 71.1931 145.83 72.5272 147.317C73.861 148.805 75.6486 149.549 77.8901 149.549C79.3168 149.549 80.6506 149.219 81.8917 148.56C83.1329 147.882 84.1332 146.884 84.8927 145.566C85.6708 144.248 86.0508 142.619 86.0321 140.68ZM107.561 159.152V101.305H119.398V123.054H119.76C120.279 121.887 121.029 120.7 122.011 119.495C123.011 118.271 124.308 117.255 125.901 116.445C127.513 115.616 129.514 115.202 131.903 115.202C135.016 115.202 137.887 116.031 140.518 117.688C143.148 119.326 145.251 121.802 146.825 125.116C148.4 128.411 149.187 132.545 149.187 137.516C149.187 142.356 148.419 146.442 146.881 149.775C145.362 153.089 143.287 155.603 140.657 157.316C138.044 159.011 135.117 159.859 131.876 159.859C129.578 159.859 127.624 159.472 126.012 158.7C124.419 157.928 123.113 156.959 122.094 155.791C121.075 154.605 120.297 153.409 119.76 152.204H119.232V159.152H107.561ZM119.148 137.46C119.148 140.039 119.501 142.289 120.204 144.21C120.908 146.131 121.927 147.628 123.261 148.701C124.595 149.756 126.216 150.283 128.124 150.283C130.051 150.283 131.681 149.746 133.015 148.673C134.349 147.581 135.358 146.075 136.044 144.154C136.748 142.214 137.1 139.983 137.1 137.46C137.1 134.955 136.757 132.752 136.072 130.85C135.386 128.948 134.377 127.46 133.042 126.387C131.709 125.314 130.069 124.777 128.124 124.777C126.198 124.777 124.567 125.295 123.234 126.331C121.918 127.366 120.908 128.835 120.204 130.737C119.501 132.639 119.148 134.88 119.148 137.46Z" fill="white"/>
<path d="M157.085 159.152V115.767H168.367V123.422H168.867C169.756 120.879 171.238 118.874 173.313 117.405C175.388 115.936 177.871 115.202 180.761 115.202C183.688 115.202 186.179 115.946 188.236 117.433C190.292 118.902 191.663 120.898 192.348 123.422H192.793C193.664 120.936 195.238 118.949 197.517 117.461C199.814 115.955 202.528 115.202 205.659 115.202C209.642 115.202 212.875 116.492 215.357 119.072C217.858 121.632 219.108 125.267 219.108 129.974V159.152H207.298V132.347C207.298 129.937 206.668 128.129 205.409 126.924C204.149 125.719 202.574 125.116 200.685 125.116C198.536 125.116 196.859 125.813 195.655 127.206C194.451 128.581 193.849 130.398 193.849 132.658V159.152H182.372V132.093C182.372 129.965 181.77 128.27 180.566 127.009C179.381 125.747 177.815 125.116 175.87 125.116C174.555 125.116 173.369 125.455 172.313 126.133C171.276 126.792 170.451 127.724 169.84 128.929C169.229 130.116 168.923 131.509 168.923 133.11V159.152H157.085ZM228.459 159.152V115.767H240.296V159.152H228.459ZM234.405 110.174C232.646 110.174 231.136 109.581 229.876 108.395C228.635 107.19 228.015 105.749 228.015 104.073C228.015 102.416 228.635 100.994 229.876 99.8078C231.136 98.6027 232.646 98 234.405 98C236.166 98 237.666 98.6027 238.907 99.8078C240.167 100.994 240.797 102.416 240.797 104.073C240.797 105.749 240.167 107.19 238.907 108.395C237.666 109.581 236.166 110.174 234.405 110.174ZM261.617 134.07V159.152H249.779V115.767H261.061V123.422H261.562C262.506 120.898 264.09 118.902 266.313 117.433C268.536 115.946 271.232 115.202 274.4 115.202C277.364 115.202 279.948 115.861 282.153 117.179C284.357 118.497 286.07 120.38 287.293 122.828C288.516 125.257 289.127 128.157 289.127 131.528V159.152H277.29V133.675C277.308 131.019 276.641 128.948 275.289 127.46C273.936 125.954 272.075 125.201 269.703 125.201C268.11 125.201 266.702 125.549 265.479 126.246C264.275 126.943 263.331 127.96 262.645 129.297C261.978 130.615 261.636 132.206 261.617 134.07ZM317.909 160C313.518 160 309.739 159.096 306.571 157.288C303.422 155.462 300.995 152.882 299.291 149.549C297.586 146.197 296.734 142.233 296.734 137.658C296.734 133.194 297.586 129.277 299.291 125.907C300.995 122.536 303.394 119.909 306.488 118.027C309.6 116.143 313.25 115.202 317.437 115.202C320.252 115.202 322.874 115.663 325.3 116.586C327.746 117.49 329.876 118.855 331.692 120.681C333.526 122.508 334.952 124.806 335.971 127.574C336.99 130.323 337.499 133.543 337.499 137.234V140.538H301.458V133.081H326.356C326.356 131.349 325.986 129.814 325.245 128.477C324.504 127.141 323.476 126.095 322.16 125.342C320.863 124.57 319.354 124.184 317.631 124.184C315.834 124.184 314.241 124.608 312.851 125.455C311.48 126.284 310.406 127.404 309.628 128.816C308.85 130.21 308.452 131.763 308.433 133.477V140.566C308.433 142.713 308.822 144.568 309.6 146.131C310.396 147.694 311.518 148.899 312.962 149.746C314.407 150.594 316.121 151.018 318.103 151.018C319.418 151.018 320.623 150.829 321.716 150.452C322.809 150.076 323.744 149.511 324.522 148.758C325.3 148.005 325.893 147.082 326.301 145.99L337.249 146.724C336.693 149.398 335.554 151.733 333.831 153.729C332.127 155.707 329.922 157.251 327.218 158.361C324.532 159.454 321.429 160 317.909 160Z" fill="white"/>
</svg>
