<svg width="12" height="13" viewBox="0 0 12 13" fill="none" xmlns="http://www.w3.org/2000/svg">
<path fill-rule="evenodd" clip-rule="evenodd" d="M3 0.5H9C10.8 0.5 12 1.55882 12 4.02941V8.97059C12 11.4412 10.8 12.5 9 12.5H3C1.2 12.5 0 11.4412 0 8.97059V4.02941C0 1.55882 1.2 0.5 3 0.5ZM3.6 5.42761C3.6 5.04526 3.90996 4.7353 4.29231 4.7353C4.67466 4.7353 4.98462 5.04526 4.98462 5.42761C4.98462 5.80996 4.67466 6.11992 4.29231 6.11992C3.90996 6.11992 3.6 5.80996 3.6 5.42761ZM6.96923 4.7353C6.58688 4.7353 6.27692 5.04526 6.27692 5.42761C6.27692 5.80996 6.58688 6.11992 6.96923 6.11992H8.2C8.58235 6.11992 8.89231 5.80996 8.89231 5.42761C8.89231 5.04526 8.58235 4.7353 8.2 4.7353H6.96923ZM6.96923 7.35069C6.58688 7.35069 6.27692 7.66065 6.27692 8.043C6.27692 8.42535 6.58688 8.7353 6.96923 8.7353H8.2C8.58235 8.7353 8.89231 8.42535 8.89231 8.043C8.89231 7.66065 8.58235 7.35069 8.2 7.35069H6.96923ZM4.29231 7.35069C3.90996 7.35069 3.6 7.66065 3.6 8.043C3.6 8.42535 3.90996 8.7353 4.29231 8.7353C4.67466 8.7353 4.98462 8.42535 4.98462 8.043C4.98462 7.66065 4.67466 7.35069 4.29231 7.35069Z" fill="#0DB1AC"/>
</svg>
