<svg width="5" height="14" viewBox="0 0 5 14" fill="none" xmlns="http://www.w3.org/2000/svg">
<path d="M2.48134 0C1.62578 0 0.925781 0.7 0.925781 1.55556C0.925781 2.41111 1.62578 3.11111 2.48134 3.11111C3.33689 3.11111 4.03689 2.41111 4.03689 1.55556C4.03689 0.7 3.33689 0 2.48134 0ZM2.48134 10.8889C1.62578 10.8889 0.925781 11.5889 0.925781 12.4444C0.925781 13.3 1.62578 14 2.48134 14C3.33689 14 4.03689 13.3 4.03689 12.4444C4.03689 11.5889 3.33689 10.8889 2.48134 10.8889ZM2.48134 5.44444C1.62578 5.44444 0.925781 6.14444 0.925781 7C0.925781 7.85556 1.62578 8.55556 2.48134 8.55556C3.33689 8.55556 4.03689 7.85556 4.03689 7C4.03689 6.14444 3.33689 5.44444 2.48134 5.44444Z" fill="black"/>
</svg>
