<svg width="22" height="22" viewBox="0 0 22 22" fill="none" xmlns="http://www.w3.org/2000/svg">
<path d="M19.9295 2.07324C17.4646 -0.3926 15.0505 -0.456153 12.522 2.07324L10.9846 3.61121C10.8575 3.73831 10.8067 3.94168 10.8575 4.11963C11.8232 7.48791 14.5168 10.1825 17.8839 11.1485C17.9347 11.1612 17.9855 11.174 18.0364 11.174C18.1761 11.174 18.3032 11.1231 18.4048 11.0214L19.9295 9.48346C21.1874 8.23783 21.7973 7.03033 21.7973 5.81012C21.81 4.55178 21.2001 3.33158 19.9295 2.07324Z" fill="#6D7688"/>
<path d="M15.5968 12.3052C15.2283 12.1273 14.8726 11.9493 14.5295 11.7459C14.25 11.5807 13.9832 11.4028 13.7164 11.2121C13.5003 11.0723 13.2462 10.8689 13.0048 10.6656C12.9794 10.6528 12.8905 10.5766 12.7888 10.4749C12.3695 10.119 11.8994 9.66142 11.4801 9.153C11.442 9.12758 11.3785 9.03861 11.2895 8.92421C11.1625 8.77169 10.9465 8.51748 10.7559 8.22514C10.6034 8.03448 10.4255 7.75485 10.2604 7.47522C10.0571 7.13203 9.87917 6.78885 9.70129 6.43296C9.67438 6.37526 9.64833 6.31785 9.62307 6.26077C9.43557 5.83711 8.88332 5.71325 8.55582 6.04087L1.27729 13.322C1.11212 13.4873 0.959645 13.805 0.921528 14.0211L0.23541 18.8892C0.108351 19.7536 0.349763 20.567 0.88341 21.1136C1.34082 21.5585 1.97612 21.8 2.66223 21.8C2.8147 21.8 2.96717 21.7872 3.11965 21.7618L7.9987 21.0755C8.22741 21.0373 8.54506 20.8848 8.69753 20.7196L15.967 13.4475C16.2967 13.1176 16.1723 12.5514 15.7434 12.3683C15.6951 12.3477 15.6463 12.3266 15.5968 12.3052Z" fill="#6D7688"/>
</svg>
