<svg width="25" height="24" viewBox="0 0 25 24" fill="none" xmlns="http://www.w3.org/2000/svg">
    <path
        d="M11.321 20.02C16.2971 20.02 20.331 15.9861 20.331 11.01C20.331 6.03391 16.2971 2 11.321 2C6.34495 2 2.31104 6.03391 2.31104 11.01C2.31104 15.9861 6.34495 20.02 11.321 20.02Z"
        fill="#2D3139" />
    <path
        d="M22.3011 18.95C21.9711 18.34 21.2711 18 20.3311 18C19.6211 18 19.0111 18.29 18.6511 18.79C18.2911 19.29 18.2111 19.96 18.4311 20.63C18.8611 21.93 19.6111 22.22 20.0211 22.27C20.0811 22.28 20.1411 22.28 20.2111 22.28C20.6511 22.28 21.3311 22.09 21.9911 21.1C22.5211 20.33 22.6211 19.56 22.3011 18.95Z"
        fill="#2D3139" />
</svg>