<svg width="15" height="15" viewBox="0 0 17 22" fill="none" xmlns="http://www.w3.org/2000/svg">
    <path fill-rule="evenodd" clip-rule="evenodd"
        d="M5.68641 9.73C6.19871 9.73 6.6177 10.149 6.6177 10.6613V17.5193C6.6177 18.0316 6.19871 18.4506 5.68641 18.4506C5.17411 18.4506 4.75511 18.0316 4.75511 17.5193V10.6613C4.75511 10.149 5.17411 9.73 5.68641 9.73ZM10.9357 9.73C11.448 9.73 11.867 10.149 11.867 10.6613V17.5193C11.867 18.0316 11.448 18.4506 10.9357 18.4506C10.4234 18.4506 10.0044 18.0316 10.0044 17.5193V10.6613C10.0044 10.149 10.4234 9.73 10.9357 9.73ZM1.70801 6.1739H14.9142C15.3344 6.1739 15.6771 6.5166 15.6771 6.9368V18.2804C15.6771 20.2395 14.0793 21.8373 12.1202 21.8373H4.502C2.5429 21.8373 0.945107 20.2395 0.945107 18.2804V6.9368C0.945107 6.5166 1.28781 6.1739 1.70801 6.1739ZM2.3041 1.348H5.5171V1.0334C5.5171 0.554398 5.9089 0.162598 6.3879 0.162598H10.2341C10.7132 0.162598 11.105 0.554398 11.105 1.0334V1.348H14.3181C15.4863 1.348 16.4391 2.3008 16.4391 3.469V4.9031C16.4391 5.1834 16.2105 5.412 15.9302 5.412H0.692002C0.411702 5.412 0.183105 5.1834 0.183105 4.9031V3.469C0.183105 2.3008 1.1359 1.348 2.3041 1.348Z"
        fill="#171717" />
</svg>